<?xml version="1.0" encoding="UTF-8" standalone="no"?>
<!DOCTYPE svg PUBLIC "-//W3C//DTD SVG 1.1//EN" "http://www.w3.org/Graphics/SVG/1.1/DTD/svg11.dtd">
<svg width="100%" height="100%" viewBox="0 0 2048 2048" version="1.1" xmlns="http://www.w3.org/2000/svg" xmlns:xlink="http://www.w3.org/1999/xlink" xml:space="preserve" xmlns:serif="http://www.serif.com/" style="fill-rule:evenodd;clip-rule:evenodd;stroke-linecap:round;stroke-linejoin:round;stroke-miterlimit:1.5;">
    <g id="Capa1">
        <rect x="316.409" y="304.54" width="1417.58" height="1431.41" style="fill:rgb(174,36,34);"/>
        <path d="M671.979,1069.15C671.979,1069.15 713.73,881.051 854.205,845.31C994.68,809.568 931.331,777.194 1033.55,777.402C1135.76,777.61 1206.76,776.665 1255.05,819.619C1303.35,862.572 1334.81,915.137 1360.78,977.714C1386.75,1040.29 1393.84,1074.62 1362.24,1154.5C1330.63,1234.38 1324.31,1260.96 1253.81,1278.85C1183.31,1296.74 1103.51,1294.12 1103.51,1294.12L1004.19,1296.7L889.042,1267.18L760.248,1202.68L674.889,1128.17L671.979,1069.15Z" style="fill:rgb(242,226,199);stroke:black;stroke-width:1px;"/>
    </g>
    <path d="M1833.62,1131.26C1818.98,1130.56 1805.35,1128.42 1799.29,1112.99C1797.35,1108.05 1793.74,1105.19 1789.02,1103.1C1782.85,1100.37 1776.78,1097.61 1770.3,1095.48C1763.21,1093.14 1756.89,1088.44 1749.61,1084.43C1749.26,1086.53 1748.75,1088.27 1748.72,1090.02C1748.62,1096.03 1748.63,1102.03 1748.7,1108.04C1748.83,1118.28 1747.41,1117.17 1757.38,1120.77C1759.41,1121.5 1761.34,1122.5 1763.27,1123.48C1763.62,1123.66 1763.69,1124.38 1764.07,1125.27C1759.34,1124.72 1754.82,1124.2 1749.59,1123.59C1749.45,1126.56 1749.23,1128.93 1749.25,1131.29C1749.59,1180.98 1750,1230.67 1750.3,1280.36C1750.79,1362 1751.15,1443.64 1751.7,1525.27C1752.13,1589.7 1752.77,1654.13 1753.31,1718.57C1753.37,1725.66 1753.52,1732.77 1753.25,1739.85C1753.1,1743.81 1754.34,1746.36 1757.75,1748.59C1785.4,1766.65 1812.93,1784.88 1840.49,1803.08C1844.36,1805.64 1848.25,1808.17 1851.99,1810.92C1854.05,1812.43 1853.92,1812.61 1854.12,1818.32C1850.93,1817.52 1847.76,1817.31 1845.16,1815.98C1836.18,1811.38 1827.28,1806.62 1818.58,1801.51C1793.64,1786.86 1768.85,1771.95 1743.91,1757.3C1741.44,1755.85 1738.35,1754.67 1735.55,1754.68C1699.51,1754.88 1663.48,1755.31 1627.44,1755.72C1626.13,1755.73 1624.83,1756.03 1622.76,1756.28C1624.26,1761.92 1625.72,1767.06 1626.99,1772.26C1632.34,1794.28 1638.18,1816.15 1647.37,1836.94C1651,1845.15 1655.22,1853.1 1659.08,1861.22C1663.65,1870.83 1668.68,1880.13 1675.32,1888.53C1677.02,1890.67 1679.12,1893.36 1675.8,1897.36C1662.27,1885.15 1653.14,1870.13 1644.45,1854.96C1635.84,1839.92 1628.26,1824.3 1619.79,1808.1C1616.6,1815.2 1620.97,1822.83 1616.29,1828.9C1612.1,1827.96 1611.81,1824.56 1611.37,1821.86C1610.31,1815.41 1609.57,1808.89 1609.07,1802.37C1608.38,1793.39 1608.43,1784.34 1607.39,1775.41C1606.65,1769.03 1604.65,1762.79 1603.08,1755.89C1442.16,1756.85 1282.08,1757.81 1121.23,1758.77C1131.62,1771.02 1135.21,1779.41 1135.53,1792.27C1133.6,1790.29 1132.04,1788.94 1130.79,1787.36C1128.59,1784.58 1126.45,1781.74 1124.52,1778.76C1121.82,1774.59 1118.32,1772.91 1113.41,1774.27C1111.85,1774.71 1110.16,1774.67 1108.56,1775.01C1104.11,1775.98 1098.33,1775.65 1095.56,1778.37C1091.48,1782.37 1089.1,1788.37 1086.9,1793.88C1085.61,1797.12 1086.19,1800.91 1090.52,1802.66C1094.05,1804.09 1097.45,1805.86 1100.9,1807.49C1112.28,1812.85 1122.7,1819.52 1132.47,1830.49C1121.09,1828.01 1114.6,1817.88 1104.5,1819.04C1112.18,1836.63 1119.82,1854.09 1127.42,1871.56C1128.62,1874.31 1129.75,1877.11 1130.64,1879.97C1132,1884.35 1134.73,1887.31 1138.49,1889.99C1145.13,1894.73 1151.3,1900.14 1157.58,1905.37C1158.46,1906.1 1158.83,1907.44 1160.46,1910.28C1149.33,1907.25 1143.22,1899.11 1133.93,1895.56L1133.93,1902.12C1133.45,1902.33 1132.96,1902.54 1132.48,1902.74C1126.57,1893.52 1120.75,1884.23 1114.72,1875.09C1108.41,1865.52 1102.41,1855.68 1095.34,1846.69C1088.47,1837.96 1080.41,1830.17 1072.95,1822.05C1069.24,1824.27 1068.24,1826.83 1069.19,1830.12C1070.32,1834.04 1071.43,1837.96 1072.73,1841.83C1073.75,1844.88 1075.05,1847.83 1076.33,1851.09C1073.38,1850.88 1068.61,1846.2 1062.03,1837.04C1059.48,1840.39 1057.1,1843.53 1054.31,1847.2C1057.21,1850.19 1059.74,1852.97 1062.45,1855.55C1065.61,1858.56 1068.81,1861.55 1072.23,1864.25C1074.96,1866.41 1077.94,1868.3 1080.98,1870.01C1091.6,1875.99 1101.34,1883.17 1110.71,1891.23C1101.15,1890.73 1093.28,1884.99 1083.08,1883.17C1083.74,1888.76 1084.45,1893.73 1084.9,1898.72C1085.36,1903.86 1084.84,1909.21 1086.05,1914.15C1089.33,1927.6 1093.3,1940.88 1097,1954.22C1103.76,1960.96 1110.56,1967.66 1117.27,1974.46C1119.24,1976.46 1120.95,1978.72 1122.13,1981.66C1107.59,1980.01 1098.77,1967.62 1085.55,1962.88C1084.52,1967.79 1083.56,1972.38 1082.48,1977.57C1078.12,1975.65 1078.38,1972.45 1078.13,1969.71C1077.52,1963.19 1076.89,1956.66 1076.68,1950.12C1076.32,1939.19 1071.84,1929.55 1068.14,1919.67C1053.47,1920.86 1050.59,1933.17 1045.51,1945.06C1042.25,1930.7 1046.41,1919.91 1059.44,1905.97C1051.78,1893.88 1038.79,1886.96 1029.52,1875.06C1019.1,1885.63 1009.24,1895.63 999.64,1905.37C1004.44,1911.7 1009.74,1916.73 1012.5,1922.9C1015.28,1929.11 1015.52,1936.45 1017.17,1944.76C1012.26,1942.71 1011.88,1939.55 1010.98,1937.02C1007.8,1928.14 1002.09,1922.27 991.73,1920.42C988.24,1929.63 985.01,1938.91 983.86,1949.05C982.75,1958.83 984.59,1968.99 981.18,1979.51C975.45,1975.23 977.6,1969.55 975.26,1964.31C968.83,1967.18 963.48,1971.67 957.8,1975.53C952.13,1979.38 947.2,1984.63 937.6,1985.23C939.99,1981.93 941.12,1979.94 942.66,1978.33C947.37,1973.39 952.08,1968.44 957.06,1963.78C962.22,1958.95 965.52,1953.32 966.96,1946.33C968.71,1937.79 971.02,1929.36 973.07,1920.87C973.33,1919.81 973.59,1918.73 973.65,1917.66C974.17,1908.42 974.64,1899.19 975.11,1889.95C975.18,1888.63 975.11,1887.31 975.11,1885.41C965.17,1886.28 957.68,1893.13 946.86,1895.14C948.64,1892.7 949.23,1891.24 950.31,1890.5C960.19,1883.75 970.48,1877.57 979.99,1870.34C988.39,1863.95 995.88,1856.39 1003.17,1848.06C1000.4,1844.6 998.05,1841.68 995.5,1838.49C989.8,1842.39 989.78,1851.08 981.86,1853.46C982.08,1843.16 992.05,1834.39 985.06,1823.14C975.68,1832.6 966.34,1840.83 959.8,1851.69C950.22,1867.59 940.45,1883.36 930.76,1899.19C929.49,1901.26 928.27,1903.36 926.16,1906.9C925.57,1903.43 925.23,1901.4 924.8,1898.81C915.96,1902.42 909.94,1910.51 899.39,1914.23C900.63,1911.45 900.86,1909.83 901.8,1908.99C907.91,1903.56 913.99,1898.07 920.45,1893.07C923.84,1890.44 926.16,1887.59 927.6,1883.51C934.86,1862.93 941.67,1842.14 952.71,1823.12C952.92,1822.76 952.66,1822.14 952.59,1821.22C942.04,1820.94 935.69,1830.14 924.93,1833.92C926.78,1831.26 927.44,1829.95 928.42,1828.97C937.19,1820.19 947.17,1813.15 958.61,1808.24C960.61,1807.38 962.52,1806.29 964.4,1805.19C969.77,1802.04 970.66,1799.37 968.31,1793.86C968.2,1793.61 968.09,1793.35 967.94,1793.13C964.79,1788.45 962.63,1781.73 958.24,1779.61C952.22,1776.7 944.53,1777.09 937.52,1776.52C936.04,1776.4 934.02,1777.92 932.91,1779.25C930.3,1782.39 928.14,1785.89 925.7,1789.18C924.16,1791.25 922.44,1793.19 920.2,1794.75C921.83,1781.01 922.96,1767.15 938.55,1760.69C938.28,1760.17 938.01,1759.66 937.74,1759.14C934.93,1758.97 932.13,1758.66 929.32,1758.64C882.63,1758.36 835.94,1758.13 789.25,1757.88C678.94,1757.27 568.64,1756.65 458.33,1756.04C455.08,1756.02 451.82,1756.04 448.22,1756.04C445.04,1763.34 443.03,1770.58 442.59,1778.24C441.97,1789.14 441.55,1800.06 440.73,1810.95C440.39,1815.55 439.48,1820.14 438.36,1824.62C437.94,1826.31 436.21,1827.67 435.07,1829.18L432.97,1828.59C432.5,1822.08 432.04,1815.57 431.57,1809.06L430.13,1808.72C428.91,1810.94 427.66,1813.15 426.46,1815.39C417.19,1832.69 408.44,1850.31 398.45,1867.19C392.66,1876.97 384.93,1885.61 377.98,1894.69C377.24,1895.66 375.9,1896.18 374.3,1897.29C373.62,1895.62 372.58,1894.35 372.81,1893.38C373.23,1891.58 374.14,1889.75 375.29,1888.28C385.31,1875.51 391.7,1860.74 398.78,1846.32C408.83,1825.87 415.32,1804.24 421,1782.3C423.18,1773.88 425.32,1765.45 427.7,1756.14C424.45,1755.91 421.55,1755.55 418.64,1755.52C384.51,1755.18 350.39,1754.8 316.26,1754.7C312.93,1754.7 309.21,1755.79 306.32,1757.48C281.12,1772.22 256.11,1787.3 230.95,1802.1C222.73,1806.94 214.21,1811.26 205.83,1815.83C204.91,1816.33 203.97,1817.37 203.1,1817.31C200.65,1817.14 197.2,1820.07 196.04,1816.19C195.59,1814.7 197.63,1811.81 199.27,1810.47C202.84,1807.55 206.88,1805.19 210.75,1802.63C238.08,1784.58 265.37,1766.48 292.81,1748.59C296.39,1746.25 296.91,1743.45 296.94,1739.68C297.35,1684.53 297.98,1629.38 298.33,1574.23C299.06,1460.1 299.61,1345.98 300.32,1231.85C300.53,1198.81 301.02,1165.78 301.38,1132.75C301.41,1130.06 301.38,1127.37 301.38,1123.7C296.05,1124.23 291.37,1124.69 286.69,1125.15C286.53,1124.68 286.37,1124.22 286.21,1123.75C291.08,1121.72 295.94,1119.7 301.2,1117.51L301.2,1083.81C298.02,1085.76 295.54,1087.22 293.12,1088.77C286.89,1092.75 280.06,1095.16 273.18,1097.8C264.19,1101.25 253.95,1104.08 249.86,1115.2C246.97,1123.08 240.58,1127.77 232.19,1129.53C227.26,1130.56 222.39,1131.88 217.49,1133.07C217.23,1132.54 216.96,1132.01 216.7,1131.49C218.67,1129.85 220.58,1128.12 222.63,1126.57C225.67,1124.26 228.77,1122.02 231.91,1119.85C234.65,1117.95 235.73,1115.72 235.05,1112.2C234.28,1108.21 234.39,1104.06 234.07,1099.98C233.69,1095.03 231.89,1091.02 226.91,1089.04C221.25,1086.79 216.59,1081.44 208.5,1083.81C200.45,1098.64 194.19,1115.77 178.04,1128.26C181.09,1117.33 190.68,1111.05 190.16,1100.18C189.21,1100.24 188.39,1100.04 187.88,1100.35C169.98,1111.11 150.36,1117.95 130.92,1125.13C125.27,1127.22 121.08,1130.07 117.62,1135.1C113.31,1141.36 107.94,1146.89 102.91,1152.63C102.18,1153.47 100.78,1153.73 99.06,1153.69C101.53,1144.33 109.27,1138.09 113.3,1129.05C110.64,1128.87 108.47,1128.72 106.3,1128.57C106.16,1128.15 106.02,1127.72 105.89,1127.3C110.93,1124.24 116.02,1121.27 120.98,1118.1C135.01,1109.14 149.35,1100.61 162.84,1090.89C171.76,1084.46 179.41,1076.28 188.48,1068.13C176.4,1060.87 167.83,1070.96 157.37,1071.48C159.83,1063.63 168.06,1063.17 172.39,1057.55C169.44,1055.22 166.52,1052.92 162.94,1050.09C160.33,1052.41 157.64,1054.56 155.24,1057.01C151.61,1060.71 148.05,1064.5 144.75,1068.48C142.7,1070.95 141.03,1073.77 139.43,1076.56C133.36,1087.12 125.95,1096.68 117.87,1105.96C118.19,1096.11 124.94,1088.37 126.07,1078.51C124.1,1078.51 122.5,1078.37 120.92,1078.53C112.02,1079.44 103.26,1082.17 94.16,1080.35C93.19,1080.16 92.05,1080.71 91,1080.98C82.56,1083.17 74.19,1085.7 65.66,1087.47C58.07,1089.05 52.13,1092.78 47.03,1098.46C42.66,1103.33 37.95,1107.91 33.25,1112.48C31.67,1114.02 29.66,1115.12 26.55,1117.36C26.99,1107.87 32.12,1102.82 35.99,1097.14C39.77,1091.59 43.39,1085.94 47.12,1080.28C42.44,1076.56 35.97,1080.11 32.08,1074.53C36.6,1071.56 41.18,1071.72 45.67,1071.7C59.14,1071.63 72.34,1070 84.91,1064.82C86.66,1064.1 88.39,1063.35 90.07,1062.64C89.03,1047.71 76.47,1045.07 64.55,1039.52C73.48,1037.1 80.52,1038.96 86.64,1041.38C92.94,1043.88 98.21,1049 104.9,1053.65C116.21,1046.78 123.49,1033.84 135.19,1024.62C124.66,1014.01 114.75,1004.01 104.07,993.24C94.93,1007.73 81.5,1010.28 66.17,1010.64C67.67,1006.81 70.54,1006.45 72.94,1005.63C82.06,1002.54 88.5,996.97 90.6,986.17C81.59,983.17 72.8,978.87 62.83,978.22C55.48,977.75 48.11,977.4 40.78,976.76C37.99,976.52 34.68,977.33 32.5,973.95C36.05,968.97 42.23,971.77 46.71,969.05C41.48,956.4 29.73,947.35 25.97,933.96C26.51,933.46 27.05,932.97 27.59,932.47C29.21,933.49 31.07,934.26 32.41,935.57C37.87,940.92 43.27,946.34 48.5,951.91C52.74,956.43 57.65,959.42 63.74,960.85C72.76,962.95 81.68,965.5 90.64,967.83C91.69,968.1 92.77,968.31 93.85,968.38C102.81,968.99 111.77,969.57 120.73,970.13C122.32,970.23 123.93,970.14 126.88,970.14C123.19,960.89 119.75,952.28 116.32,943.66C116.71,943.37 117.1,943.08 117.49,942.78C118.62,943.54 120.13,944.06 120.83,945.11C127.46,955.07 133.44,965.5 140.64,975.03C146.99,983.44 154.64,990.86 162.15,999.2C166.14,996.16 169.3,993.76 172.85,991.05C167.72,986.29 160.66,984.55 156.4,977.59C167.76,977.48 176.65,988.07 188.11,981.17C178.24,971.36 169.73,961.51 158.43,954.58C142.62,944.87 127,934.85 111.32,924.94C109.41,923.73 107.61,922.37 106.38,919.75C108.4,919.95 110.42,920.15 112.76,920.39C112.71,919.5 112.94,918.59 112.59,918.07C109.11,912.85 105.5,907.71 102.02,902.49C100.62,900.38 99.46,898.11 98.19,895.91C98.64,895.52 99.09,895.13 99.54,894.73C100.8,895.34 102.44,895.64 103.27,896.61C108.76,903.03 113.96,909.69 119.52,916.05C121.6,918.43 124.05,921.05 126.88,922.1C148.09,930.01 169.39,937.66 189.12,948.98C189.29,949.08 189.61,948.89 190.27,948.75C191.05,938 181.01,931.56 178.22,920.53C193.84,933 200.52,949.57 208.4,964.99C218.08,967.25 224.29,961.09 231.03,956.91C232.73,955.86 233.57,952.7 233.92,950.37C234.69,945.26 235.17,940.07 235.17,934.91C235.17,933.09 233.83,930.82 232.41,929.55C229.37,926.84 225.83,924.7 222.58,922.22C220.52,920.65 218.62,918.87 216.64,917.18C216.97,916.56 217.3,915.94 217.64,915.32C225.09,917.6 232.71,919.46 239.95,922.29C245.24,924.36 248.3,929.33 250.41,934.42C252.9,940.4 257.19,943.81 262.98,946.45C268.64,949.04 274.12,951.64 280.21,953.3C284.81,954.55 288.9,957.73 293.18,960.12C295.71,961.53 298.18,963.05 301.38,964.94L301.38,931.35C296.4,929.34 291.7,927.44 286.99,925.54C287.08,924.98 287.17,924.42 287.26,923.86C291.58,924.25 295.89,924.64 300.83,925.09C301.04,923.07 301.45,921.03 301.44,918.99C300.87,827.25 300.28,735.51 299.65,643.77C299.13,567.87 298.6,491.97 298.01,416.07C297.73,380.31 297.24,344.54 297.02,308.78C297,304.83 295.9,302.24 292.52,300.03C264.87,281.97 237.32,263.76 209.75,245.58C206.33,243.33 202.82,241.19 199.59,238.69C197.8,237.31 196.49,235.3 194.68,233.25C199.1,229.84 202.45,230.91 205.88,232.86C215.84,238.52 225.92,243.98 235.79,249.78C259.8,263.86 283.69,278.15 307.73,292.17C310.18,293.6 313.38,294.41 316.22,294.38C352.53,294.09 388.83,293.6 425.14,293.14C425.67,293.14 426.19,292.9 427.32,292.62C427.05,290.94 426.94,289.18 426.48,287.5C422.04,271.19 417.84,254.81 412.99,238.62C407.43,220.03 399.9,202.2 390.11,185.4C385.19,176.96 380.03,168.65 375.11,160.21C373.84,158.03 370.86,155.28 373.76,153.08C376.95,150.66 378.37,154.69 379.97,156.52C395.7,174.53 407.6,195.03 418.3,216.28C422.21,224.04 425.86,231.93 430.1,240.73C434.45,233.75 430.25,226.18 434.34,218.69C436.13,221.01 437.88,222.34 438.31,224.01C439.45,228.48 440.39,233.07 440.75,237.66C441.56,248.27 441.58,258.96 442.7,269.54C443.52,277.3 445.57,284.94 447.16,293.09C614.1,292.02 779.96,290.95 946.37,289.88C945.83,285.64 943.4,283.84 940.65,282.81C924.36,276.69 921.68,262.62 919.44,246.92C921.3,248.24 922.56,248.79 923.31,249.75C924.99,251.89 926.62,254.12 927.9,256.52C931.78,263.8 937.05,267.72 945.74,265.1C947.75,264.49 950.08,264.97 952.26,264.84C957.23,264.54 961.14,262.65 963.33,257.8C964.67,254.82 966.53,252.08 967.96,249.14C970.87,243.17 970.08,240.33 964.35,237.12C958.64,233.92 952.66,231.21 947.01,227.93C939,223.28 931.9,217.46 926.26,209.71C935.68,211.96 942.13,221.44 953.49,221.06C950.6,215.38 947.66,210.51 945.57,205.31C939.55,190.38 933.63,175.4 928.18,160.26C926.32,155.09 923.54,151.46 919.12,148.21C912.77,143.55 907.11,137.95 901.23,132.67C900.53,132.04 900.3,130.89 898.94,128.14C909.85,131.45 915.8,139.61 924.91,143.68C925.04,142.28 925.2,141.17 925.22,140.06C925.24,139.05 925.1,138.04 924.96,135.85C926.57,137.07 927.54,137.46 927.98,138.18C937.34,153.57 946.8,168.9 955.89,184.44C963.42,197.3 973.24,208.12 984.43,218.2C987.78,216.9 988.48,214.11 987.79,211C986.85,206.76 985.54,202.6 984.3,198.43C983.41,195.43 982.38,192.47 980.97,188.15C989.33,191.34 989.95,199.07 995.42,203.84C997.94,200.71 1000.39,197.66 1003.35,193.99C994,185.53 986.71,175.77 975.6,169.71C965.43,164.16 956.57,156.49 947.89,148.44C957.39,149.5 965.2,155.23 975.3,157.5C975.1,154.1 974.92,151.5 974.79,148.89C974.41,141.01 974.05,133.13 973.66,125.25C973.61,124.17 973.5,123.07 973.25,122.02C971.09,113 968.75,104.02 966.75,94.97C965.41,88.89 962.62,83.83 958.11,79.54C953.17,74.83 948.44,69.9 943.71,64.99C941.91,63.12 940.35,61 938.42,58.67C942.81,55.9 945.59,58.43 948.05,60C954.71,64.25 961.08,68.97 967.59,73.46C969.81,74.99 972.1,76.41 975.04,78.32C976.43,73.09 977.66,68.43 979.15,62.82C983.39,66.08 982.86,69.5 983.06,72.54C983.58,80.44 983.76,88.36 984.39,96.24C985.12,105.29 988.65,113.54 991.64,121.6C1006.12,120.32 1009.59,108.64 1014.61,96.82C1017.81,110.96 1013.2,122.09 999.73,135.39C1007.01,147.67 1019.68,155.02 1028.79,167.15C1039.51,156.92 1049.64,147.25 1059.52,137.83C1054.89,131.32 1049.76,126.13 1047.17,119.88C1044.58,113.62 1044.53,106.3 1043.13,98.06C1047.88,100.27 1048.3,103.37 1049.18,105.99C1052.16,114.9 1057.69,120.95 1067.37,122.81C1078.45,105.31 1076.26,84.72 1079.53,64.81C1081.96,66.863 1084.07,71.987 1085.84,80.18C1092.07,76.21 1098.01,72.57 1103.8,68.7C1109.33,65.01 1114.35,60.32 1123.38,59.73C1121.53,62.62 1120.75,64.49 1119.42,65.81C1113.99,71.19 1108.48,76.49 1102.83,81.64C1098.25,85.82 1095.23,90.73 1093.72,96.8C1091.48,105.8 1088.26,114.59 1086.56,123.67C1085.07,131.64 1085.15,139.89 1084.45,148.01C1084.15,151.45 1083.64,154.87 1083.05,159.77C1092.92,156.06 1101.57,152.81 1110.21,149.56C1110.47,150.02 1110.72,150.48 1110.98,150.93C1110.47,151.77 1110.17,152.91 1109.43,153.39C1099.39,159.91 1089.3,166.34 1079.21,172.78C1078.07,173.51 1076.74,174.02 1075.75,174.92C1068.7,181.29 1061.72,187.73 1054.16,194.66C1056.98,198.44 1059.35,201.6 1062.01,205.16C1066.87,200.2 1068.62,193.38 1074.75,189.59C1076.68,193.51 1074.43,195.95 1073.61,198.57C1072.24,202.98 1070.74,207.35 1069.35,211.75C1068.33,214.96 1069.05,217.63 1072.35,219.79C1082.09,210.78 1091.99,201.99 1099.23,190.59C1109.04,175.16 1119.11,159.89 1129.09,144.58C1130.23,142.84 1131.55,141.22 1133.65,138.36C1133.82,141.95 1133.92,144.02 1134.04,146.56C1143.27,143.32 1149.34,135.04 1159.46,133.76C1158.51,135.15 1157.82,136.85 1156.58,137.88C1150.27,143.08 1143.7,147.96 1137.48,153.26C1135.09,155.3 1132.59,157.82 1131.48,160.65C1123.17,181.68 1115.4,202.92 1103.11,223C1114.67,224.05 1121.24,215.1 1131.59,211.29C1130.22,213.67 1129.78,215.07 1128.84,215.96C1119.84,224.5 1109.69,231.29 1098.15,235.95C1095.88,236.87 1093.67,237.97 1091.53,239.17C1086.25,242.11 1085.27,244.9 1087.72,250.5C1089.14,253.75 1091.07,256.77 1092.46,260.03C1094.57,264.97 1098.49,266.78 1103.47,267.08C1105.65,267.21 1108.04,266.76 1109.97,267.51C1118.44,270.83 1123.22,266.44 1127.39,259.96C1129.52,256.65 1132.15,253.67 1135.21,250.92C1135.43,259.38 1133.92,267.78 1129.08,273.93C1124.31,280 1116.85,283.95 1109.18,289.91C1274.42,290.98 1438.27,292.04 1603.12,293.11C1604.68,286.14 1606.79,279.64 1607.48,272.99C1608.91,259.16 1609.45,245.23 1610.64,231.37C1611,227.2 1611.25,222.65 1615.82,219.45C1621.43,225.56 1616.46,233.32 1620.02,240.65C1621.59,237.83 1622.84,235.66 1624.03,233.45C1633.31,216.15 1642.11,198.56 1652.05,181.65C1657.54,172.32 1664.89,164.08 1671.55,155.46C1672.69,153.98 1674.58,153.08 1676.41,151.69C1679.06,156.42 1676.46,159.1 1674.61,161.46C1664.93,173.81 1658.85,188.13 1651.97,202.02C1641.26,223.67 1634.52,246.67 1628.67,269.98C1626.82,277.35 1624.89,284.71 1622.82,292.74C1625.62,292.96 1627.94,293.28 1630.26,293.3C1650.19,293.44 1670.12,293.45 1690.05,293.66C1704.24,293.81 1718.43,294.15 1732.62,294.55C1736.86,294.67 1740.59,293.77 1744.27,291.57C1769.31,276.56 1794.39,261.61 1819.55,246.79C1827.77,241.95 1836.18,237.39 1844.67,233.04C1847.36,231.66 1850.61,231.37 1853.6,230.59C1854.06,231.09 1854.53,231.59 1854.99,232.09C1854.27,233.81 1854.01,236.06 1852.75,237.14C1849.45,239.97 1845.78,242.38 1842.14,244.78C1814.12,263.27 1786.12,281.79 1757.98,300.1C1754.23,302.54 1753.31,305.35 1753.28,309.56C1752.96,359.52 1752.39,409.48 1752.02,459.43C1751.7,502.84 1751.56,546.26 1751.34,589.67C1751,657.38 1750.72,725.1 1750.3,792.81C1750.04,834.86 1749.59,876.9 1749.25,918.95C1749.23,920.81 1749.43,922.67 1749.56,925.05C1754.3,924.65 1758.64,924.28 1762.99,923.91C1763.11,924.44 1763.23,924.98 1763.35,925.51C1758.72,927.46 1754.09,929.41 1749.27,931.45L1749.27,965.17C1753.39,962.6 1756.54,960.62 1759.71,958.67C1765.07,955.38 1771.05,953.64 1776.82,951.35C1785.8,947.79 1796.14,945.13 1800.34,934.19C1803.48,926.02 1809.85,921.1 1818.52,919.25C1823.26,918.24 1827.95,916.95 1833.37,916.89C1832.29,918.17 1831.36,919.64 1830.09,920.69C1828.2,922.25 1826.16,923.67 1824.02,924.86C1816.73,928.92 1813.22,934.4 1816.34,942.94C1816.96,944.65 1816.63,946.72 1816.63,948.63C1816.64,954.08 1818.83,958.07 1824.08,960.15C1825.6,960.75 1827.03,961.57 1828.45,962.38C1840.2,969.16 1842.68,965.84 1846.82,955.99C1851.85,944.01 1858.86,933.38 1867.91,924.08C1868.81,923.16 1869.81,922.34 1871.49,921.88C1869.07,931.57 1859.69,938.44 1860.1,949.95C1880.54,937.79 1902.17,930.22 1923.6,922.15C1926.63,921.01 1929.16,918.03 1931.43,915.46C1936.83,909.32 1941.89,902.89 1947.18,896.66C1947.98,895.72 1949.31,895.24 1951.04,895.02C1949.35,904.92 1940.64,910.94 1937.07,920.41C1939.57,920.15 1941.8,919.92 1944.03,919.69C1916.86,940.08 1885.33,954.1 1863.18,980.74C1865.2,983.49 1867.7,984.62 1871.04,983.63C1874.94,982.47 1878.9,981.49 1882.78,980.26C1885.84,979.29 1888.81,978.06 1892.08,976.84C1891.78,980.153 1886.93,984.803 1877.53,990.79C1880.83,993.41 1883.88,995.84 1887.56,998.77C1890.32,996.31 1893.03,994.15 1895.44,991.7C1899.07,988 1902.61,984.2 1905.93,980.23C1907.81,977.98 1909.47,975.46 1910.76,972.82C1914.03,966.11 1928.32,946.5 1933.25,942.64C1934.17,948.18 1930.41,951.93 1929.04,956.32C1927.67,960.69 1925.8,964.9 1923.87,969.93C1927.15,969.93 1929.5,970.04 1931.83,969.91C1939.98,969.46 1948.12,968.94 1956.27,968.42C1957.35,968.35 1958.45,968.25 1959.5,967.98C1968.73,965.57 1977.89,962.87 1987.18,960.76C1993.06,959.42 1997.66,956.44 2001.73,952.21C2007.03,946.7 2012.38,941.24 2017.79,935.84C2019.08,934.55 2020.7,933.59 2023.35,931.58C2023.35,934.44 2023.89,936.32 2023.25,937.63C2021.47,941.28 2019.32,944.78 2017.09,948.19C2012.65,954.98 2008.05,961.67 2003.11,969C2008.76,970.37 2013.48,971.52 2018.45,972.72C2016.71,977.2 2013.6,976.47 2011.13,976.68C2004.06,977.28 1996.98,977.79 1989.89,978.04C1979.28,978.42 1969.88,982.75 1960.28,986.13C1961.57,1000.99 1973.99,1003.8 1984.03,1009.44C1976.7,1011.43 1969.7,1009.93 1963.62,1007.36C1957.36,1004.71 1952.12,999.64 1945.71,995.11C1934.46,1002.13 1927.19,1014.84 1915.24,1024.22C1926.56,1034.04 1934.5,1046.22 1946.35,1054.34C1961.28,1040.71 1968.04,1037.93 1984.03,1038.8C1983.15,1042.17 1980.03,1042.52 1977.83,1043.2C1968.49,1046.09 1962.31,1051.8 1960.09,1061.89C1977.73,1072.97 1998.55,1070.22 2018.49,1073.21C2017.23,1077.87 2014.32,1077.68 2011.73,1078.04C2009.15,1078.41 2006.58,1078.81 2003.64,1079.26C2009.17,1092.57 2020.65,1101.47 2024.43,1114.65L2023.01,1116.18C2021.39,1115.26 2019.5,1114.62 2018.2,1113.36C2012.92,1108.22 2007.69,1103.01 2002.69,1097.6C1998.1,1092.64 1992.81,1089.29 1986.12,1087.79C1977.08,1085.77 1968.24,1082.77 1959.16,1081.06C1953.12,1079.92 1946.78,1080.42 1940.6,1079.95C1935.47,1079.56 1930.36,1078.83 1924.24,1078.14C1925.86,1088.19 1932.02,1096.18 1934,1107.03C1931.8,1105.42 1930.51,1104.91 1929.88,1103.95C1923.26,1093.99 1917.24,1083.59 1910.06,1074.06C1903.7,1065.63 1896.08,1058.15 1888.44,1049.61C1884.63,1052.52 1881.47,1054.93 1878.02,1057.57C1882.19,1063.16 1890.56,1063.62 1893.31,1071.22C1882.89,1071.49 1874.04,1060.68 1862.56,1067.69C1872.56,1077.9 1881.42,1087.77 1892.96,1094.83C1908.79,1104.5 1924.42,1114.51 1940.11,1124.4C1941.68,1125.39 1943.15,1126.54 1945.86,1128.45C1942.22,1128.64 1939.98,1128.75 1937.23,1128.9C1940.81,1137.95 1949.27,1144.11 1951.83,1153.36C1951.24,1153.79 1950.66,1154.23 1950.07,1154.66C1948.07,1152.66 1945.91,1150.79 1944.1,1148.64C1939.54,1143.22 1935.28,1137.55 1930.61,1132.23C1928.71,1130.06 1926.36,1127.89 1923.76,1126.82C1913.17,1122.46 1902.28,1118.81 1891.74,1114.35C1881.23,1109.91 1871,1104.82 1860.31,1099.86C1859.69,1110.67 1868.97,1117.29 1871.58,1126.75C1856.65,1115.73 1849.81,1099.11 1842,1083.5C1832.3,1082.02 1826.06,1087.9 1819.3,1092.11C1817.97,1092.94 1817.26,1095.39 1817.01,1097.2C1816.26,1102.59 1815.64,1108.03 1815.5,1113.47C1815.45,1115.34 1816.5,1117.73 1817.87,1119.03C1820.61,1121.64 1823.95,1123.63 1826.98,1125.94C1829.25,1127.67 1831.44,1129.5 1833.67,1131.29L1833.62,1131.26ZM910.14,899.28C914.57,901.67 918.44,903.52 922.06,905.76C952.45,924.6 982.79,943.53 1013.16,962.41C1015.87,964.09 1018.69,965.61 1022.66,967.9C1024.53,948.69 1026.22,930.8 1028.04,912.93C1029.84,895.28 1032.18,877.68 1033.57,860C1034.96,842.23 1039.47,824.74 1039.32,806.34C1033.44,807 1028.55,807.37 1023.71,808.11C937.59,821.31 861.97,857.87 794.71,912.3C761.68,939.03 735.12,971.24 716.07,1009.68C705.85,1030.31 700.85,1051.46 701.25,1074.32C701.94,1113.13 724.52,1143.3 760.77,1151.58C789.76,1158.2 815.7,1171.19 839.75,1188.11C853.58,1197.83 866.69,1208.59 880.01,1219.03C891.94,1228.37 904.86,1235.79 919.31,1240.52C925.79,1242.64 932.04,1245.49 938.56,1247.44C952.4,1251.57 966.16,1256.34 980.31,1258.97C999.6,1262.56 1019.21,1264.41 1038.7,1266.95C1040.45,1267.18 1042.25,1266.98 1043.95,1266.98C1035.04,1202.83 1026.23,1139.41 1017.27,1074.97C1013.37,1077.35 1010.12,1079.22 1006.99,1081.27C985.76,1095.2 964.6,1109.23 943.32,1123.07C939,1125.88 934.32,1128.19 929.67,1130.42C928.26,1131.1 926.35,1130.74 923.02,1130.97C948.37,1101.82 972.58,1073.98 998.09,1044.65C975.14,1042.73 954.04,1040.99 932.94,1039.21C911.72,1037.42 890.53,1035.25 869.29,1033.87C837.04,1031.77 811.59,1028.69 805.78,1024.94C870.46,1014.53 934.43,1006.21 999.46,997.5C997.64,995.25 996.89,994.15 995.97,993.22C976.51,973.68 957,954.19 937.57,934.63C929.3,926.3 921.11,917.89 913,909.41C910.85,907.17 908.09,904.92 910.14,899.28ZM1602.77,861.01C1600.89,861.87 1599.07,862.93 1597.12,863.57C1589.61,866.04 1582.01,868.25 1574.55,870.83C1572.37,871.58 1569.72,872.79 1568.63,874.6C1564.51,881.48 1570.25,894.61 1578.26,895.46C1586.07,896.29 1591.84,900.25 1598.12,904.11C1615.14,914.58 1633.04,922.08 1653.76,917.7C1654.82,917.48 1655.93,917.49 1657.01,917.33C1667.51,915.86 1678.01,914.34 1688.52,912.92C1690.25,912.69 1692.03,912.89 1695.53,912.89C1693.11,915.19 1692.07,916.71 1690.62,917.47C1686.04,919.88 1681.18,921.78 1676.66,924.29C1671.48,927.16 1666.14,930.08 1664.39,936.07C1669.88,947.44 1678.7,950.89 1690.21,948.68C1691.81,948.37 1693.46,948.31 1695.09,948.13C1702.06,947.32 1707.56,943.35 1711.45,938.17C1713.55,935.38 1713.37,930.51 1713.38,926.58C1713.65,730.59 1713.82,534.59 1713.98,338.6C1713.98,336.8 1713.57,335 1713.18,331.83C1709.55,333.45 1706.46,334.32 1703.92,336.03C1674.37,355.85 1649.21,380.24 1628.82,409.41C1605.82,442.31 1587.94,477.72 1577.43,516.64C1576.46,520.25 1575.29,523.8 1574.05,527.92C1584.49,529.75 1593.21,529.97 1601.69,523.18C1616.38,511.42 1631.77,500.53 1646.98,489.43C1649.43,487.64 1651.77,485.03 1656.29,485.45C1648.02,497.29 1640.17,508.53 1632.38,519.68C1636.4,521.92 1639.79,523.82 1643.47,525.87C1639.54,532.01 1633.9,533.04 1628.72,533.7C1623.43,534.37 1620.32,536.76 1618.03,541.18C1616.78,543.59 1615.12,545.79 1613.6,548.06C1610.76,552.29 1606.87,554.99 1602.02,556.67C1590.95,560.51 1580.05,564.87 1568.91,568.49C1563.88,570.12 1561.71,572.98 1560.25,577.94C1553.95,599.38 1548.24,621.09 1540.31,641.95C1521.66,691.02 1497.95,737.73 1471.29,782.94C1469.89,785.31 1468.67,787.78 1466.93,790.99C1480.37,787.86 1492.25,784.89 1504.22,782.34C1527.69,777.35 1551.21,772.6 1574.72,767.76C1576.72,767.35 1579.02,766.08 1580.25,769.97C1562.43,780.22 1542.41,785.8 1523.3,794.43C1524.67,801.88 1525.91,808.63 1527.31,816.22C1515.96,816.26 1511.92,806.68 1503.78,802.72C1479.89,814.97 1454.7,825.78 1433.49,844.55C1459.59,860.14 1478.13,882.77 1500.3,901.4C1509.75,894.87 1519.92,890.76 1530.66,888.76C1539.61,887.09 1546.24,883.19 1550.69,875.25C1555.91,865.93 1564.13,861.29 1574.7,860.61C1583.84,860.02 1592.93,857.7 1602.77,861.02L1602.77,861.01ZM1574.64,1520.93C1574.78,1522.33 1574.75,1523.43 1575.02,1524.44C1590.73,1582.77 1618.57,1634.48 1661.02,1677.59C1674.13,1690.91 1689.97,1701.56 1704.62,1713.34C1707.2,1715.42 1710.15,1716.77 1713.68,1714.68L1713.68,1679.52C1713.61,1493.89 1713.53,1308.26 1713.45,1122.63C1713.45,1120.45 1713.32,1118.25 1713.48,1116.08C1713.7,1113.06 1712.18,1111.14 1710.24,1109C1703.37,1101.43 1694.26,1100.33 1684.93,1099.51C1674.26,1098.57 1668.6,1104.83 1664.19,1113.17C1667.62,1119.73 1673.3,1122.93 1679.21,1125.84C1683.37,1127.89 1687.62,1129.76 1691.68,1131.97C1692.82,1132.59 1693.45,1134.15 1694.57,1135.62C1693.06,1136.1 1692.2,1136.71 1691.61,1136.52C1676.16,1131.32 1659.67,1133.11 1644,1129.39C1641.98,1128.91 1639.65,1129.27 1637.55,1129.69C1621.36,1132.93 1605.96,1137.97 1592.56,1148.22C1589.53,1150.54 1585.28,1151.65 1581.41,1152.43C1573.71,1153.99 1568.67,1158.66 1567.6,1166.22C1566.6,1173.22 1568.4,1176.05 1575.3,1178.28C1583.34,1180.88 1591.4,1183.41 1599.4,1186.11C1600.59,1186.51 1601.51,1187.73 1603.44,1189.28C1596.1,1189.28 1590.06,1189.89 1584.18,1189.17C1559.08,1186.1 1561.3,1187.79 1546.99,1168.83C1546.66,1168.39 1546.33,1167.96 1546.07,1167.48C1544.38,1164.36 1541.63,1162.91 1538.28,1162.13C1524.98,1159.01 1511.82,1155.47 1500.22,1147.46C1477.93,1166.51 1459.06,1188.93 1433.61,1204.43C1454.27,1222.43 1477.96,1233.11 1501.09,1244.74C1504.01,1246.21 1506.08,1245.34 1508.36,1243.23C1511.95,1239.9 1515.74,1236.72 1519.78,1233.98C1521.28,1232.96 1524.47,1232.47 1525.56,1233.36C1526.71,1234.3 1526.78,1237.26 1526.46,1239.2C1525.61,1244.21 1524.29,1249.14 1523.09,1254.41C1542.62,1263.2 1562.67,1268.47 1579.98,1280.1C1577.77,1281.04 1575.75,1281.32 1573.82,1280.99C1569.26,1280.19 1564.74,1279.13 1560.22,1278.14C1530.12,1271.54 1500.03,1264.92 1469.92,1258.36C1469.29,1258.22 1468.52,1258.71 1467.38,1259.04C1468.86,1261.67 1470.12,1264.05 1471.5,1266.36C1495,1305.81 1515.27,1346.91 1533.39,1389.07C1544.62,1415.19 1553.32,1442.18 1559.96,1469.82C1561.28,1475.3 1563.6,1478.78 1569.35,1480.6C1580.26,1484.05 1590.83,1488.55 1601.68,1492.19C1606.88,1493.93 1610.91,1496.74 1613.85,1501.26C1614.89,1502.86 1616.11,1504.37 1616.96,1506.07C1619.68,1511.54 1623.57,1514.97 1630.03,1515.53C1633.18,1515.81 1636.29,1517.35 1639.23,1518.72C1640.72,1519.42 1641.79,1521.02 1643.86,1522.99C1639.52,1525.32 1636.13,1527.14 1632.29,1529.21C1640.35,1540.7 1648.09,1551.75 1656.2,1563.32C1651.82,1563.94 1649.46,1561.31 1647.02,1559.52C1632.25,1548.74 1617.21,1538.28 1603.08,1526.71C1594.22,1519.45 1585.04,1519.22 1574.63,1520.98L1574.64,1520.93ZM355.83,914.6L356.69,912.28C359.28,912.71 361.88,913.1 364.47,913.57C369.29,914.43 374.08,915.52 378.93,916.16C387.3,917.25 395.7,918.2 404.11,918.94C407.59,919.25 411.23,919.35 414.64,918.7C430.35,915.71 445.04,910.29 458.03,900.53C461.09,898.23 465.31,897.07 469.17,896.34C476.93,894.88 482.37,889.54 483.14,881.65C483.7,875.87 481.6,872.62 475.83,870.75C468.05,868.23 460.21,865.9 452.46,863.31C450.73,862.73 449.24,861.44 447.63,860.48C447.87,859.81 448.11,859.14 448.35,858.46C456.67,859.09 464.98,859.87 473.31,860.31C485.01,860.92 494.33,865.36 500.31,875.86C501.65,878.21 503.35,880.43 505.2,882.4C506.63,883.92 508.4,885.61 510.31,886.09C524.31,889.6 538.26,893.16 550.4,901.38C572.49,882.01 591.5,860.07 616.79,844.4C595.4,825.7 570.45,814.72 546.01,802.49C543.99,804.22 542.39,805.65 540.73,807C537.56,809.59 534.56,812.48 531.08,814.55C529.3,815.61 526.63,815.16 524.35,815.4C524.25,813.37 523.82,811.29 524.13,809.33C524.91,804.33 526.03,799.37 527.07,794.1C519.74,791.23 513.42,788.79 507.12,786.28C500.54,783.65 493.89,781.16 487.45,778.22C481.55,775.53 474.88,774.02 470.63,768.08C483.44,768.56 495.63,771.98 507.97,774.48C520.53,777.02 533.12,779.45 545.65,782.17C557.97,784.85 570.23,787.83 583.73,790.96C581.7,787.4 580.39,785.05 579.03,782.73C550.46,733.88 524.94,683.54 505.76,630.22C499.49,612.8 494.93,594.77 489.87,576.93C488.72,572.87 486.92,570.4 482.81,568.98C472.24,565.35 461.95,560.86 451.29,557.57C444.06,555.33 438.54,551.68 434.86,545.12C433.79,543.22 432.39,541.5 431.38,539.58C429.59,536.17 427.02,534.53 423.07,533.97C417.51,533.17 411.86,531.96 407.76,527.51C408.82,521.7 414.73,522.77 417.94,519.82C413.97,513.88 410.02,508.34 406.48,502.55C402.95,496.78 397.47,492.24 395.38,485.32C400.06,487.3 404.21,489.75 408.07,492.59C422.34,503.12 436.65,513.61 450.68,524.47C458.73,530.7 467.1,529.46 476.14,527.79C475.65,525.64 475.4,524.31 475.04,523.01C460,468.11 434,419.21 395.31,377.23C380.61,361.28 363.79,347.88 346.03,335.58C343.29,333.68 340.54,331.86 336.32,333.81C336.32,336.17 336.27,338.84 336.32,341.51C336.49,349.15 336.87,356.79 336.88,364.43C337.02,551.42 337.13,738.4 337.24,925.39C337.24,928.12 337.02,930.88 337.34,933.57C337.55,935.34 338.13,937.35 339.23,938.67C345.98,946.77 364.7,951.87 374.67,948.42C375.9,948 377.06,947.08 377.97,946.13C380.94,943 383.78,939.74 386.63,936.57C380.26,923.24 365.22,922.71 355.82,914.6L355.83,914.6ZM583.61,1258.32C581.33,1258.44 580.25,1258.34 579.24,1258.57C561.96,1262.51 544.72,1266.62 527.41,1270.43C511.16,1274.01 494.86,1277.32 478.56,1280.63C475.92,1281.16 472.96,1282.42 469.69,1279.44C487.95,1268.31 508.19,1263.28 527.18,1254.24C526.03,1248.78 524.86,1244.05 524.09,1239.26C523.78,1237.32 524.34,1235.24 524.5,1233.22C526.75,1233.53 529.39,1233.19 531.17,1234.27C534.64,1236.38 538.02,1238.92 540.7,1241.94C544.33,1246.05 547.76,1245.85 552.15,1243.45C559.81,1239.27 567.7,1235.51 575.43,1231.46C576.92,1230.68 578.13,1229.38 579.75,1228.1C575.47,1226.47 571.8,1225.35 568.37,1223.71C554.42,1217.02 548.67,1204.06 552.93,1189.26C553.68,1186.64 554.52,1184.04 555.47,1181.48C558.11,1174.36 560.82,1167.26 563.66,1159.74C559.22,1155.56 554.92,1151.51 550.31,1147.18C539.5,1155.15 527.4,1158.52 515.19,1161.37C509.8,1162.63 505.49,1164.65 502.85,1169.63C495.56,1183.41 483.5,1188.78 468.56,1189.18C461.71,1189.37 454.83,1190.59 447.92,1188.29C450.19,1186.56 452.55,1185.45 455.01,1184.65C462.01,1182.38 469.1,1180.37 476.05,1177.94C478.2,1177.19 480.73,1175.86 481.83,1174.04C485.99,1167.13 480.21,1154.2 472.15,1153.48C464.56,1152.81 458.78,1149.32 453.08,1145.1C440.64,1135.9 425.96,1132.63 411.32,1129.28C410.02,1128.98 408.53,1128.89 407.25,1129.21C391.63,1133.2 375.08,1131.08 359.65,1136.4C358.68,1136.74 357.32,1135.97 354.01,1135.26C357.81,1132.84 359.87,1131.31 362.11,1130.15C366.23,1128.02 370.57,1126.33 374.61,1124.07C379.55,1121.3 384.39,1118.24 386.35,1112.73C381.2,1104.42 375.38,1098.28 365.11,1099.55C360.79,1100.08 356.1,1099.86 352.27,1101.55C347.41,1103.69 342.62,1106.84 339.03,1110.71C337.1,1112.8 337.3,1117.28 337.3,1120.68C337.23,1242.16 337.38,1363.64 337.22,1485.13C337.12,1560.2 336.55,1635.27 336.22,1710.34C336.22,1711.92 336.51,1713.5 336.64,1714.89C341.22,1716.97 344.27,1714.45 347.44,1712.3C373.91,1694.41 396.96,1672.8 416.01,1647.21C443.33,1610.5 463.34,1570.1 475.04,1525.73C475.44,1524.21 475.55,1522.61 475.8,1521.03C464.48,1518.49 454.47,1519.59 445.93,1527.89C442.63,1531.1 438.67,1533.66 434.93,1536.4C423.71,1544.64 412.48,1552.86 401.18,1560.98C399.47,1562.21 397.36,1562.9 395.44,1563.84C395.13,1563.35 394.81,1562.86 394.5,1562.38C398.49,1556.96 402.59,1551.62 406.45,1546.11C410.43,1540.43 414.17,1534.58 418.03,1528.78C413.96,1526.1 408.64,1526.96 407.84,1520.96C412.12,1516.99 417.68,1515.65 423.27,1514.76C427.12,1514.14 429.78,1512.56 431.53,1509.06C432.62,1506.88 434.23,1504.96 435.47,1502.84C438.81,1497.15 443.64,1493.73 449.97,1491.66C460.59,1488.18 470.9,1483.79 481.52,1480.32C486.53,1478.68 488.75,1475.92 490.17,1470.87C495.58,1451.72 500.67,1432.4 507.54,1413.76C526.48,1362.42 551.14,1313.76 578.76,1266.58C580.22,1264.09 581.67,1261.61 583.6,1258.31L583.61,1258.32ZM1116.7,987.47C1179.51,995.75 1241.08,1003.88 1302.66,1012C1302.71,1012.95 1302.76,1013.91 1302.81,1014.86C1282.06,1019.41 1260.64,1019.95 1239.73,1023.59C1218.79,1027.24 1197.68,1029.89 1176.69,1033.27C1155.66,1036.66 1134.29,1038.03 1112.62,1043.04C1136.11,1070.39 1160.08,1095.82 1181.79,1123.4C1150.27,1108.17 1121.56,1088.53 1091.8,1069.71C1084.09,1136.53 1076.47,1202.49 1068.82,1268.73C1069.82,1268.96 1070.86,1269.43 1071.88,1269.39C1102.53,1268.38 1133.26,1266.57 1161.84,1254.51C1190.47,1242.44 1218.83,1229.51 1246.36,1215.13C1278.09,1198.55 1303.66,1174.33 1323.14,1144.21C1328.56,1135.84 1333.52,1126.58 1336.04,1117.03C1343.9,1087.27 1343.25,1057.02 1337.52,1026.95C1329.71,985.97 1310.13,950.72 1283.53,919.08C1273.53,907.18 1263.56,895.24 1253.18,883.67C1245.72,875.35 1238.12,867.04 1229.71,859.72C1183.32,819.33 1128.39,803.52 1067.81,804.53C1066.61,804.55 1065.41,805.16 1064.68,805.37C1071.75,859.04 1078.75,912.1 1085.83,965.81C1088.43,964.04 1090.47,962.75 1092.41,961.32C1108.46,949.51 1124.37,937.52 1140.55,925.89C1157.83,913.46 1175.33,901.34 1192.79,889.16C1194.8,887.75 1196.86,885.07 1200.28,888.25C1198.67,893.86 1194.37,897.79 1190.74,901.98C1168.02,928.16 1145.15,954.21 1122.35,980.32C1120.62,982.3 1119.08,984.43 1116.69,987.47L1116.7,987.47ZM1332.73,1591.81C1330.61,1598.18 1328.65,1603.82 1326.85,1609.51C1325.12,1614.97 1323.7,1620.52 1321.87,1625.94C1319.95,1631.62 1317.74,1637.2 1315.59,1642.8C1313.54,1648.14 1311.51,1653.5 1309.27,1658.76C1307.07,1663.94 1306.87,1670.17 1300.84,1675.33C1301.32,1670.52 1301.5,1667.31 1301.98,1664.14C1305.11,1643.67 1308.98,1623.35 1309.33,1602.49C1309.53,1590.78 1307.83,1579.67 1304.02,1568.79C1299.71,1556.44 1294.91,1544.26 1290.59,1531.92C1279.25,1499.49 1267.68,1467.13 1256.95,1434.5C1251.77,1418.76 1244.86,1404.14 1235.37,1390.66C1234.19,1388.98 1232.72,1387.5 1230.39,1384.75C1227.25,1388.37 1224.78,1391.66 1221.86,1394.49C1211.09,1404.94 1200.2,1415.26 1189.3,1425.58C1184.13,1430.48 1178.5,1433.95 1171.29,1430.32C1166.68,1435.33 1162.37,1439.89 1158.21,1444.57C1154.11,1449.18 1149,1452.98 1146.4,1458.61C1148.6,1462.54 1150.8,1466.01 1152.52,1469.7C1154.25,1473.4 1156.16,1477.2 1156.85,1481.15C1159.21,1494.71 1165.1,1505.44 1177.77,1512.18C1183.23,1515.09 1186.1,1520.65 1186.75,1527.06C1187.69,1536.27 1188.78,1545.47 1189.66,1554.69C1189.82,1556.34 1189.27,1558.07 1189.05,1559.76C1186.48,1557.62 1185.33,1555.28 1184.5,1552.83C1182.13,1545.86 1180.04,1538.79 1177.5,1531.88C1176.71,1529.74 1175.28,1527.22 1173.41,1526.2C1166.65,1522.47 1153.93,1528.11 1153.24,1535.75C1152.47,1544.19 1147.95,1550.34 1144.03,1557.17C1134.22,1574.24 1127.16,1592.06 1131.94,1612.4C1132.19,1613.46 1132.19,1614.57 1132.36,1615.65C1133.97,1626.14 1135.63,1636.62 1137.17,1647.12C1137.42,1648.79 1137.2,1650.52 1137.2,1652.23C1136.64,1652.47 1136.08,1652.7 1135.52,1652.94C1134,1650.61 1132.32,1648.37 1131,1645.93C1128.53,1641.38 1126.57,1636.53 1123.84,1632.15C1121.31,1628.08 1118.51,1623.89 1111.96,1622.69C1108.54,1626.72 1102.65,1630.57 1101.75,1635.36C1099.75,1646.05 1100.15,1657.29 1108.33,1666.2C1122.75,1681.91 1123.98,1701.93 1126.74,1721.54C1124.81,1719.54 1123.72,1717.2 1122.66,1714.86C1120.52,1710.14 1118.64,1705.3 1116.21,1700.74C1112.9,1694.53 1102.72,1692.25 1097.21,1696.7C1093.06,1700.05 1089.56,1704.19 1085.68,1708.06C1089.67,1714.2 1093.22,1719.67 1097.14,1725.71C1220.7,1724.15 1344.39,1722.52 1468.37,1720.46C1461.88,1697.2 1445.42,1677.31 1430.52,1674.12C1431.57,1680.59 1432.7,1687 1433.61,1693.44C1434.02,1696.38 1437.05,1699.77 1433.08,1702.21C1430.83,1703.59 1428.74,1700.78 1427.6,1693.89C1425.06,1678.54 1419.98,1664.21 1409.92,1652.21C1402.21,1643.02 1393.66,1634.55 1385.58,1625.66C1371.28,1609.93 1353.16,1600.23 1332.71,1591.84L1332.73,1591.81ZM1127.67,323.48C1125.72,332.7 1124.15,340.99 1122.2,349.2C1120.1,358.04 1116.95,366.71 1110.61,373.26C1104.03,380.06 1101.67,388.03 1100.97,396.89C1100.06,408.44 1103.36,413.81 1114.5,419.28C1120.7,416.28 1123.97,410.61 1127,404.77C1129.14,400.66 1131.03,396.41 1133.29,392.37C1133.92,391.25 1135.49,390.66 1136.64,389.82C1137.44,393.39 1136.85,396.2 1136.3,399.01C1135.37,403.82 1134.29,408.61 1133.59,413.46C1132.47,421.28 1131.46,429.13 1130.69,437C1130.32,440.75 1130.09,444.65 1130.72,448.33C1133.37,463.83 1138.26,478.5 1147.96,491.21C1150.65,494.74 1152.14,498.63 1152.4,503.24C1152.88,511.86 1157.09,514.29 1165.38,516.79C1171.66,518.69 1175.66,516.1 1177.81,509.75C1180.44,502 1182.92,494.2 1185.62,486.47C1186.14,484.98 1187.39,483.73 1189.13,481.14C1189.45,484.14 1189.72,485.45 1189.7,486.75C1189.64,490.57 1189.76,494.43 1189.27,498.2C1185.46,527.16 1186.84,523.7 1166.64,538.47C1166.42,538.63 1166.11,538.72 1165.97,538.93C1164.46,541.08 1162.28,543.05 1161.6,545.45C1157.79,558.83 1154.29,572.29 1146.08,583.77C1146.99,585.16 1147.47,586.15 1148.18,586.94C1156.38,596.08 1164.57,605.23 1172.91,614.25C1174.1,615.53 1176,616.19 1177.64,617.01C1180.98,618.69 1184.79,619.77 1187.65,622.04C1193.4,626.62 1198.77,631.71 1204.09,636.81C1213.14,645.48 1222.03,654.32 1231.64,663.73C1239.33,652.43 1247.17,641.88 1251.59,629.48C1260.11,605.59 1267.98,581.47 1276.25,557.49C1283.99,535.06 1290.69,512.17 1300.08,490.44C1309.13,469.49 1310.72,448.34 1308.08,426.4C1306.36,412.07 1303.78,397.84 1301.7,383.54C1301.27,380.58 1301.37,377.54 1301.23,374.54L1303.28,374.22C1308.52,387.82 1314.03,401.33 1318.92,415.05C1323.82,428.83 1328.1,442.83 1332.74,457C1353.41,448.71 1371.88,438.57 1386.47,422.32C1394.13,413.79 1402.29,405.69 1409.69,396.95C1419.64,385.21 1424.78,371.22 1427.48,356.18C1428.14,352.49 1427.51,347.67 1432.62,346.01C1435.01,349.66 1434.98,349.66 1434.49,352.42C1433.14,360 1431.81,367.58 1430.37,375.7C1449.9,366.95 1464.13,349.02 1467.98,328.25C1354.67,326.66 1241.54,325.08 1127.7,323.48L1127.67,323.48ZM818.82,1385.08C814.93,1391.02 811.46,1395.89 808.45,1401.03C805.15,1406.67 801.54,1412.29 799.35,1418.38C790.97,1441.73 783.21,1465.31 775.01,1488.73C766.09,1514.2 757.02,1539.62 747.85,1565.01C743.84,1576.11 740.58,1587.28 740.96,1599.25C741.63,1620.83 744.41,1642.14 748.43,1663.33C749.09,1666.82 748.94,1670.47 749.16,1674.04L747.12,1674.37C741.87,1660.78 736.33,1647.28 731.45,1633.56C726.55,1619.8 722.31,1605.8 717.76,1591.86C692.42,1601.88 678.51,1610.98 663.21,1627.42C657.26,1633.81 651.64,1640.53 645.49,1646.72C633.92,1658.34 627.25,1672.37 624.03,1688.24C623.32,1691.71 622.81,1695.24 621.83,1698.63C621.14,1701.02 619.87,1703.31 615.54,1701.41C616.96,1692.31 618.42,1682.93 619.95,1673.16C598.25,1681.91 589.57,1700.12 581.37,1720.53C696.72,1722.18 811.09,1723.81 925.42,1725.44C927.28,1714.85 928.79,1705.43 930.62,1696.07C932.37,1687.15 935.35,1678.46 941.39,1671.64C947.18,1665.1 949.71,1657.82 950.34,1649.41C951.28,1636.81 948.29,1631.44 936.55,1625.61C930.43,1629.56 927.76,1632.73 924.24,1640.35C922.41,1644.31 920.77,1648.37 918.75,1652.23C918.01,1653.66 916.45,1654.65 914.49,1656.62C914.19,1654.26 913.84,1653.2 913.97,1652.21C915.95,1636.82 918.04,1621.45 919.96,1606.05C920.26,1603.68 920.1,1601.14 919.61,1598.79C916.28,1582.89 911.2,1567.71 900.75,1554.83C897.97,1551.41 896.31,1547.63 895.84,1542.99C895.08,1535.36 889.5,1530.42 881.86,1529.46C875.46,1528.65 872.21,1530.69 870.3,1536.92C867.9,1544.74 865.67,1552.62 863.21,1560.42C862.73,1561.94 861.5,1563.21 860.61,1564.6C859.43,1558.3 858.99,1552.41 859.5,1546.59C861.81,1520.18 861.72,1522.64 880.56,1508.14C883.34,1506 885.02,1503.59 885.77,1500.22C888.72,1486.9 892.08,1473.71 899.92,1461.9C898.07,1459.8 896.55,1457.92 894.88,1456.18C888.07,1449.1 881.22,1442.06 874.37,1435.01C873.42,1434.04 872.54,1432.85 871.37,1432.29C861.8,1427.69 854.74,1419.99 847.26,1412.86C838.01,1404.03 828.95,1394.99 818.81,1385.08L818.82,1385.08ZM926.59,324.22C915.28,322.66 587.99,327.94 581.87,329.72C589.75,348.86 598.31,367.23 620.16,375.55C619.17,369.82 617.97,365.04 617.6,360.2C617.26,355.64 614.01,351.04 616.93,345.91C621.98,347.07 622.07,350.8 622.63,354.19C625.14,369.5 629.96,384.03 640.01,396.03C648.76,406.49 658.44,416.16 667.8,426.1C681.54,440.69 699.03,449.17 717.91,457.15C721.01,447.16 723.7,437.75 726.86,428.5C730.03,419.22 733.39,409.97 737.21,400.95C740.89,392.26 742.39,382.58 748.41,374.82C748.99,378.29 749.05,381.56 748.55,384.74C745.49,404.39 741.68,423.89 741.38,443.96C741.25,452.79 740.83,461.48 743.58,469.83C748.87,485.87 754.68,501.74 760.22,517.7C771.22,549.4 782.57,580.98 792.98,612.87C798.3,629.14 805.28,644.34 815.14,658.26C816.32,659.92 817.8,661.37 819.78,663.65C846.84,635.71 873.37,608.32 899.91,580.9C897.57,576.41 895.32,572.67 893.64,568.68C891.85,564.42 889.87,560.02 889.26,555.51C887.5,542.56 881.74,532.73 870.23,526C864.63,522.72 861.68,517.03 861.09,510.28C860.48,503.22 859.37,496.19 858.88,489.12C858.61,485.26 859.18,481.34 859.37,477.45C859.94,477.41 860.51,477.36 861.08,477.32C861.94,479.23 862.99,481.09 863.61,483.07C865.88,490.36 867.97,497.71 870.2,505.02C872.26,511.79 876.29,514.11 883.16,512.61C890.75,510.95 894.54,506.6 896.14,498.81C896.88,495.2 898.47,491.69 900.14,488.37C901.48,485.72 903.71,483.53 905.23,480.96C915.39,463.74 922.25,445.99 918.48,425.14C916.41,413.69 917.1,401.75 914.03,390.32C913.75,389.29 914.38,388.02 914.91,385.03C924.07,395.77 924.23,410.95 936.89,416.74C943.76,412.65 949.24,408.17 949.59,405.07C950.81,394.43 951.82,383.43 944.26,374.57C935.37,364.17 931.34,352.01 929.1,338.93C928.28,334.11 927.44,329.3 926.57,324.21L926.59,324.22ZM729.57,645.42C728.16,631.38 727.2,619.47 725.7,607.63C723.95,593.86 723.77,579.83 719.12,566.51C711.3,544.07 702.56,522.01 691.43,500.98C683.06,485.18 672.81,471.01 658.26,459.96C643.56,448.79 631.26,434.95 623.51,418.09C618.18,406.5 610.87,396.57 600.8,389.71C589.19,381.79 584.69,370.38 580.35,358.35C577.48,350.4 574.77,342.39 571.91,334.43C571.2,332.44 570.19,330.56 569.15,328.24C531.96,329.97 494.95,328.43 457.15,330.29C460.13,345.65 461.49,360.29 466.39,374.97C483.52,352.26 487.17,349.06 497.52,348.31C494.89,351.69 492.5,354.22 490.75,357.13C487.56,362.44 483.85,367.7 482.03,373.5C479.94,380.19 479.77,387.47 478.56,394.45C477.62,399.83 478.91,404.29 481.78,409.06C502.17,442.96 522.68,476.78 539.36,512.79C552.44,541.01 566.63,568.71 580.35,596.62C581.17,598.29 582.24,599.84 583.11,601.31C592.11,600.76 593.53,599.89 594.93,591.84C596.71,581.64 598.24,571.37 599.29,561.07C599.62,557.79 598.6,554.09 597.27,550.98C594.49,544.47 591.11,538.21 587.95,531.85C586.74,529.41 585.17,527 588.64,523.56C592.47,525.4 596.63,527.41 601.04,529.53C601.77,518.96 602.41,508.91 603.17,498.87C603.5,494.52 603.87,490.16 604.69,485.89C604.91,484.73 606.7,483.42 608,483.08C608.84,482.86 610.5,484.05 611.1,485.03C611.92,486.36 612.32,488.08 612.5,489.67C613.15,495.36 613.89,501.07 614.13,506.79C615.77,544.96 617.31,583.14 618.83,621.32C619.34,634.09 621.21,647.08 612.64,658.19C614.32,660.59 615.43,662.46 616.8,664.11C628.35,677.98 640.54,691.27 654.74,702.49C675.3,718.74 696.04,734.76 716.73,750.85C718.63,752.33 720.71,753.59 723.19,755.29C734.68,744.56 745.96,734.02 757.32,723.41C751.81,714.18 746.56,706.08 738.14,700.33C733.45,697.13 729.64,692.65 725.21,689.04C719.1,684.05 712.85,679.21 706.5,674.51C695.98,666.74 685.42,659.02 674.72,651.5C667.07,646.12 663.46,638.69 661.57,629.74C656.86,607.49 655.28,584.93 654.13,562.31C654.06,560.89 654.94,559.43 655.91,556.23C664.42,567.96 664.31,581.58 671.24,592.75C673.42,590.17 675.21,587.37 677.67,585.4C679.31,584.09 682.15,583.05 684.02,583.55C686.81,584.29 686.66,587.26 686.03,589.81C685.06,593.78 683.96,597.73 683.16,601.74C680.02,617.56 680.17,617.51 686.6,632.18C688.19,635.8 690.39,638.07 694.15,638.79C705.35,640.92 716.57,642.98 729.56,645.4L729.57,645.42ZM456.98,1718.76C495.27,1719.34 532.5,1719.91 569.62,1720.48C571.22,1716.16 572.45,1712.84 573.69,1709.53C578.16,1697.52 582.53,1685.47 587.2,1673.54C588.14,1671.15 589.93,1668.89 591.82,1667.1C598.75,1660.54 605.99,1654.31 612.88,1647.72C615.2,1645.5 617.41,1642.82 618.68,1639.92C628.59,1617.33 644.41,1599.69 663.33,1584.25C669.99,1578.81 676.08,1572.16 680.85,1565.01C699.48,1537.07 711.53,1506.07 721.37,1474.15C721.85,1472.59 722.28,1470.98 722.46,1469.37C724.62,1449.85 726.74,1430.32 728.82,1410.79C729.04,1408.75 728.85,1406.67 728.85,1404.24C722.8,1404.98 717.67,1405.56 712.54,1406.23C709.02,1406.69 705.48,1407.07 702.02,1407.8C689.47,1410.46 689.48,1410.51 684.14,1422.73C683.7,1423.73 683.38,1424.79 682.84,1425.73C680.7,1429.45 680.24,1433.18 681.38,1437.46C683.26,1444.57 684.53,1451.83 686.1,1459.03C686.66,1461.59 686.7,1464.03 684.14,1465.53C681.44,1467.12 679.46,1465.52 677.74,1463.62C675.6,1461.25 673.55,1458.8 670.72,1455.52C668.28,1462.39 666.3,1468.27 664.12,1474.07C661.94,1479.86 661.61,1486.6 655.27,1492.78C654.73,1488.76 654.18,1486.76 654.24,1484.77C654.42,1479.04 654.51,1473.28 655.24,1467.61C657.41,1450.58 659.7,1433.57 662.27,1416.59C663.36,1409.36 666.85,1403.29 673.01,1398.87C684.3,1390.77 695.49,1382.53 706.67,1374.28C712.37,1370.08 718.1,1365.9 723.57,1361.4C730.1,1356.03 736.22,1350.18 742.77,1344.83C749.27,1339.53 752.88,1332.36 757.38,1325.28C745.67,1314.42 734.52,1304.07 723.11,1293.49C720.12,1295.63 717.64,1297.26 715.31,1299.07C697.4,1312.95 679.58,1326.94 661.62,1340.76C645.74,1352.98 631.71,1367.07 618.8,1382.33C616.71,1384.8 614.85,1387.47 612.73,1390.25C617.36,1398.81 619.88,1407.28 619.39,1417.06C617.28,1458.76 615.95,1500.51 614.14,1542.23C613.85,1549.02 612.79,1555.8 611.65,1562.5C611.42,1563.86 609.2,1564.87 607.89,1566.05C606.74,1564.75 604.85,1563.58 604.59,1562.12C603.78,1557.57 603.53,1552.92 603.16,1548.3C602.4,1538.69 601.7,1529.08 600.91,1518.61C598.46,1520.24 597,1521.43 595.35,1522.25C592.84,1523.5 590.04,1526.78 587.52,1523.68C586.42,1522.33 587.42,1518.6 588.4,1516.36C591.13,1510.12 594.59,1504.19 597.26,1497.92C598.59,1494.8 599.68,1491.12 599.35,1487.84C598.31,1477.54 596.78,1467.27 595,1457.07C593.58,1448.92 592.57,1448.35 583.33,1447.22C582.57,1448.45 581.62,1449.76 580.91,1451.18C569.63,1473.91 557.71,1496.36 547.28,1519.48C529.96,1557.89 509.68,1594.69 487.41,1630.33C479.87,1642.39 477.53,1653.45 480.24,1667.07C482.34,1677.61 485.54,1686.96 493.2,1694.63C494.73,1696.16 495.65,1698.31 497.08,1700.52C495.38,1700.87 494.85,1701.14 494.4,1701.04C493.61,1700.87 492.85,1700.52 492.12,1700.17C483.2,1695.94 476.49,1689.36 471.48,1680.93C470.07,1678.56 468.46,1676.31 466.95,1674.01C466.41,1674.21 465.88,1674.42 465.34,1674.62C462.63,1689 459.92,1703.38 457.03,1718.76L456.98,1718.76ZM1449.13,1518.53C1448.95,1522.18 1448.86,1524.57 1448.7,1526.95C1447.95,1538.11 1447.18,1549.27 1446.42,1560.43C1446.25,1563 1445.79,1565.69 1442.74,1565.98C1439.6,1566.27 1438.75,1563.66 1438.39,1561.1C1437.83,1557.05 1437.15,1553 1436.93,1548.92C1435.99,1531.48 1435.2,1514.03 1434.35,1496.58C1433.58,1480.78 1432.68,1464.98 1432.07,1449.16C1431.66,1438.53 1432.17,1427.83 1431.31,1417.25C1430.69,1409.63 1431.16,1402.52 1435.08,1395.95C1437.78,1391.44 1436.66,1388.02 1433.44,1384.28C1421.33,1370.17 1408.79,1356.51 1394.1,1345C1374.34,1329.51 1354.51,1314.11 1334.69,1298.69C1332.55,1297.03 1330.31,1295.5 1327.6,1293.54C1315.71,1304.04 1304.13,1314.54 1293.35,1325.55C1298.89,1335.46 1304.76,1343.46 1313.41,1349.29C1317.44,1352.01 1320.65,1355.91 1324.46,1359.01C1331.01,1364.33 1337.62,1369.58 1344.4,1374.59C1354.47,1382.05 1364.59,1389.44 1374.91,1396.55C1383.65,1402.58 1387.5,1411.1 1389.35,1421.17C1393.25,1442.41 1395.78,1463.77 1396.06,1485.37C1396.08,1487.1 1395.58,1488.83 1395.29,1490.74C1390.94,1490.45 1390.68,1487.28 1389.85,1484.96C1387.02,1477 1384.47,1468.94 1381.68,1460.96C1381.13,1459.39 1380.01,1458.01 1379,1456.28C1376.16,1459.51 1374,1462.34 1371.42,1464.72C1370.43,1465.63 1368.04,1466.26 1367.08,1465.69C1365.71,1464.88 1364.73,1462.95 1364.24,1461.3C1363.89,1460.15 1364.62,1458.66 1364.9,1457.33C1366.35,1450.39 1367.93,1443.48 1369.24,1436.52C1371.02,1427.05 1364.52,1420.19 1361.26,1412.32C1361.01,1411.71 1359.98,1411.33 1359.23,1411.05C1347.17,1406.53 1334.51,1405.96 1320.86,1404.24C1322.81,1422.46 1324.47,1439.52 1326.54,1456.52C1327.49,1464.34 1328.4,1472.33 1330.76,1479.8C1338.32,1503.77 1347.91,1526.96 1359.76,1549.16C1367.92,1564.46 1378.05,1578.04 1392.09,1588.78C1406.76,1599.99 1419.03,1613.78 1426.89,1630.6C1432.14,1641.83 1438.96,1651.87 1448.93,1658.46C1461.7,1666.91 1466.18,1679.6 1470.87,1692.64C1473.46,1699.82 1475.86,1707.07 1478.43,1714.26C1479.15,1716.26 1480.17,1718.16 1481.24,1720.52C1518.43,1719.93 1555.41,1719.34 1593.04,1718.75C1590.64,1703.08 1588.82,1688.48 1583.84,1673.16C1576.13,1686.07 1568.83,1697.38 1554.08,1700.5C1554.99,1697.88 1556.3,1695.57 1558.08,1693.72C1565.19,1686.35 1569.26,1677.76 1569.84,1667.44C1570.1,1662.83 1570.76,1658.18 1571.86,1653.69C1573.07,1648.77 1571.79,1644.94 1569.22,1640.67C1549.25,1607.48 1529.1,1574.4 1512.59,1539.25C1498.91,1510.12 1484.39,1481.38 1470.2,1452.48C1469.26,1450.57 1468.06,1448.78 1467.07,1447.07C1458,1448.53 1456.61,1449.44 1455.32,1457.28C1453.65,1467.5 1452.27,1477.79 1451.33,1488.1C1451.03,1491.38 1452.01,1495.06 1453.35,1498.15C1456.39,1505.15 1460.13,1511.83 1463.29,1518.78C1463.94,1520.2 1463.93,1522.95 1463.02,1523.77C1462.07,1524.63 1459.47,1524.43 1457.98,1523.79C1455.27,1522.63 1452.84,1520.81 1449.12,1518.54L1449.13,1518.53ZM1327.28,755.27C1328.91,754.26 1329.9,753.78 1330.76,753.11C1354,734.97 1377.7,717.38 1400.25,698.42C1412.49,688.12 1422.78,675.49 1433.88,663.84C1436.17,661.44 1438.27,658.8 1436.03,655.15C1430.77,646.54 1430.4,637.18 1431.57,627.48C1432.06,623.43 1431.78,619.3 1431.95,615.21C1433.62,576.22 1435.27,537.23 1437.04,498.25C1437.22,494.18 1437.85,490.07 1438.88,486.14C1439.24,484.78 1441.35,483.32 1442.87,483.06C1443.77,482.9 1445.38,484.82 1446.07,486.12C1446.66,487.23 1446.44,488.78 1446.53,490.14C1447.26,501.85 1447.95,513.56 1448.73,525.26C1448.83,526.69 1449.38,528.1 1449.84,529.98C1452.53,528.25 1454.43,526.54 1456.66,525.74C1458.72,525.01 1461.14,525.26 1463.4,525.08C1463.25,527.09 1463.63,529.34 1462.85,531.07C1459.81,537.77 1456.29,544.26 1453.2,550.94C1452.09,553.33 1450.84,556.13 1451.1,558.59C1452.29,569.98 1453.67,581.36 1455.61,592.64C1456.92,600.24 1459.41,601.52 1468.21,600.85C1479.55,577.86 1491.71,554.94 1502.33,531.32C1520.17,491.65 1541.16,453.7 1564.05,416.84C1570.75,406.06 1572.74,396.39 1570.54,384.04C1568.4,372.01 1564.94,361.44 1556.19,352.8C1555.06,351.68 1554.66,349.82 1553.31,347.05C1568.88,351.71 1576.4,362.95 1584,375.85C1588.59,360.12 1591,345.54 1592.87,330.46C1590.12,330.21 1588.25,329.92 1586.38,329.88C1553.09,329.33 1519.79,328.85 1486.5,328.21C1482.36,328.13 1480.19,329.35 1478.75,333.52C1473.92,347.42 1468.75,361.21 1463.35,374.9C1462.24,377.72 1459.86,380.22 1457.61,382.4C1450.56,389.24 1443.21,395.76 1436.18,402.61C1434.28,404.46 1432.72,406.88 1431.64,409.32C1421.87,431.3 1406.81,449.01 1387.96,463.64C1380.09,469.75 1373.69,477.06 1368.35,485.43C1350.9,512.81 1339.23,542.75 1329.4,573.49C1328.25,577.1 1327.78,580.96 1327.32,584.74C1325.76,597.47 1324.24,610.2 1322.93,622.95C1322.22,629.88 1321.96,636.85 1321.45,644.56C1330.34,643.45 1338.16,642.56 1345.95,641.49C1356.26,640.08 1364.41,636.41 1367.2,624.76C1368.41,619.7 1370.35,615.22 1368.84,609.81C1366.95,602.99 1365.62,596 1364.51,589C1364.23,587.24 1365.2,584.26 1366.51,583.56C1367.86,582.84 1370.8,583.66 1372.2,584.82C1374.78,586.95 1376.74,589.83 1379.7,593.25C1381.84,587.44 1383.68,582.66 1385.36,577.83C1387.24,572.42 1388.93,566.95 1390.77,561.53C1391.5,559.37 1392.45,557.36 1395.51,558.73C1395.72,559.45 1396.14,560.22 1396.14,560.99C1395.95,584.52 1393.34,607.79 1388.7,630.85C1387.01,639.22 1383.28,646.14 1376.16,651.18C1372.38,653.85 1369.09,657.21 1365.29,659.86C1346.3,673.12 1327.26,686.23 1310.09,701.96C1303.26,708.22 1298.21,715.21 1293.31,723.6C1304.77,734.26 1316.09,744.8 1327.32,755.25L1327.28,755.27ZM1098.59,735.5C1096.14,724.77 1094.25,715.44 1091.85,706.24C1088.95,695.1 1084.74,684.43 1078.13,674.89C1072.23,666.37 1065.95,658.11 1060.32,649.42C1057.05,644.38 1052.74,641.01 1047.63,638.21C1041.2,634.69 1034.67,631.26 1028.69,627.08C1023.8,623.66 1019.96,624.32 1015.3,627.3C1009.59,630.94 1003.33,633.7 997.52,637.19C993.37,639.68 988.97,642.2 985.72,645.67C980.71,651.02 976.59,657.2 972.07,663.01C959.64,679 951.16,696.78 946.95,716.66C945.49,723.58 943.26,730.36 941,737.07C938.33,745.03 935.24,752.85 932.34,760.73C937.06,764.52 941.41,764.85 946.93,762.65C960.35,757.29 973.99,752.46 987.69,747.87C1018.79,737.44 1050.66,732.39 1083.54,734.79C1088.11,735.12 1092.7,735.24 1098.6,735.52L1098.59,735.5ZM940.66,1302.19C944.28,1315.61 947.29,1327.69 950.83,1339.6C953.87,1349.83 958.1,1359.61 964.51,1368.27C970.67,1376.59 977.22,1384.64 983.01,1393.21C986.87,1398.92 991.92,1402.54 997.93,1405.45C1003.78,1408.28 1009.52,1411.39 1015.07,1414.77C1021.6,1418.75 1022.87,1418.76 1029.07,1414.81C1035.01,1411.03 1041.32,1407.82 1047.3,1404.09C1050.96,1401.81 1055.19,1399.66 1057.63,1396.33C1066.18,1384.71 1074.66,1372.95 1082.04,1360.57C1089.87,1347.45 1093.74,1332.78 1095.68,1316.55C1042.83,1322.66 991.63,1318.86 940.64,1302.19L940.66,1302.19ZM1381.82,955.32C1382.65,958.89 1383.21,961.21 1383.72,963.53C1386.72,977.1 1390.04,990.61 1392.63,1004.26C1396.82,1026.29 1397.96,1048.65 1398.93,1071.01C1399.13,1075.68 1399.76,1080.06 1403.45,1083.69C1405.14,1082.76 1406.66,1082.13 1407.97,1081.19C1416.38,1075.14 1424.56,1068.76 1433.18,1063.04C1438.43,1059.56 1441.89,1055.01 1444.72,1049.59C1447.98,1043.34 1451.38,1037.15 1455.07,1031.15C1458.97,1024.82 1458.94,1023.83 1454.74,1017.19C1451.26,1011.7 1448.04,1006.01 1445.16,1000.19C1442.18,994.19 1438.63,988.97 1432.65,985.51C1429.38,983.61 1426.55,980.94 1423.53,978.61C1411.18,969.12 1398.49,960.23 1381.83,955.33L1381.82,955.32ZM697.01,949.62C696.62,949.17 696.23,948.71 695.84,948.26C690.83,949.39 685.8,950.43 680.82,951.65C667.8,954.84 655.13,958.97 644.02,966.73C635.1,972.96 626.53,979.69 617.46,985.7C612.23,989.16 608.68,993.6 605.86,999.03C602.49,1005.51 599.02,1011.98 595.03,1018.08C592.08,1022.59 592.14,1026.26 595.06,1030.75C599.04,1036.87 602.35,1043.42 605.94,1049.78C608.29,1053.94 609.96,1058.71 615.57,1060.85C639.91,1021.58 666.84,984.41 697.02,949.61L697.01,949.62ZM525.7,1026.1C532.31,1027.04 553.78,1039.86 565.87,1049.72C573.55,1043.68 576.4,1034.75 579.85,1026.21C580.23,1025.28 580.32,1023.95 579.95,1023.04C576.41,1014.35 573.78,1005.06 565.63,999.15C553.86,1009.2 531.53,1022.37 525.82,1022.43C528.35,1016.53 533.31,1011.91 534.69,1004.53C521.18,1009.16 509.95,1015.4 500.07,1024.28C511.51,1034.94 527.01,1043.12 535.09,1042.66C531.97,1037.17 528.95,1031.85 525.7,1026.11L525.7,1026.1ZM1023.69,532.34C1013.73,542.21 1005.1,557.71 1004.85,565.97C1011.18,565.26 1015.32,559.01 1023.8,558.43C1014.57,572.42 1006.25,585.04 997.78,597.88C1003.29,605.22 1012.21,608.16 1020.7,611.76C1021.62,612.15 1022.93,612.3 1023.82,611.94C1032.56,608.47 1041.95,606.03 1047.98,597.92C1038.07,585.99 1025.28,563.56 1025.42,557.83C1028.18,559.51 1030.66,561.08 1033.2,562.55C1035.85,564.08 1038.57,565.51 1041.86,567.31C1040.81,557.12 1033.01,542.41 1023.68,532.35L1023.69,532.34ZM1550.86,1024.4C1539.99,1015.37 1529.11,1008.78 1516.72,1004.94L1515.4,1006.19C1518.45,1011.62 1521.5,1017.04 1524.55,1022.47C1524.09,1022.9 1523.63,1023.33 1523.17,1023.76C1509.74,1016.59 1497.14,1008.07 1484.51,999.13C1476.8,1005.11 1474.02,1014.37 1470.37,1023.1C1470.08,1023.79 1470.02,1024.78 1470.3,1025.45C1474.02,1034.32 1476.66,1043.89 1485.08,1049.94C1493.82,1041.45 1518.95,1026.48 1524.6,1026.48C1521.5,1031.93 1518.46,1037.26 1515.43,1042.6C1515.83,1043.05 1516.23,1043.5 1516.63,1043.95C1528.99,1040.06 1539.9,1033.49 1550.86,1024.39L1550.86,1024.4ZM1047.59,1443.62C1041.77,1436.69 1033.41,1433.96 1025.29,1430.83C1024.08,1430.36 1022.45,1429.95 1021.37,1430.38C1012.63,1433.89 1003.44,1436.77 997.55,1444.92C1009.63,1459.67 1020.96,1478.39 1021.22,1484.32C1015.75,1481.46 1010.43,1478.68 1005.1,1475.91L1003.85,1477.34C1008,1489.55 1014.59,1500.33 1023.72,1510.71C1032.45,1499.8 1039.05,1488.96 1042.62,1475.62C1035.12,1476.57 1031.19,1483.04 1022.58,1484.15C1031.47,1469.73 1039.4,1456.88 1047.57,1443.63L1047.59,1443.62ZM987.6,1561.65C983.09,1558.97 978.22,1556.51 973.84,1553.36C969.35,1550.13 965.35,1546.23 961.38,1542.84C960.6,1545.28 959.61,1548.41 958.31,1552.48C953.31,1546.75 952.58,1540.92 952.94,1535.33C953.43,1527.76 950.29,1522.4 945.35,1517.25C939.42,1511.06 933.96,1504.43 928.18,1497.86C920.81,1509.36 920.84,1511.83 928.9,1521.57C941.54,1536.85 951.29,1553.78 958.5,1572.23C961.97,1581.12 965.63,1589.95 969.3,1598.76C969.93,1600.28 971.07,1601.59 972.2,1603.37C977.47,1589.07 982.45,1575.59 987.58,1561.65L987.6,1561.65ZM459.44,958.79C459.48,957.92 459.53,957.06 459.57,956.19C464.55,955.22 469.6,953.2 474.49,953.53C482.88,954.09 489.04,951.03 494.86,945.48C500.85,939.77 507.4,934.65 513.84,929.15C502.92,921.83 499.79,921.75 490.78,929.01C474.71,941.96 456.96,951.83 437.57,958.88C429.12,961.95 420.78,965.33 412.43,968.66C410.91,969.27 409.56,970.31 407.59,971.48C421.93,977.03 435.29,982.19 449.55,987.7C454.29,977.99 460.09,968.51 471.3,962.42C466.39,960.92 462.91,959.85 459.43,958.78L459.44,958.79ZM1601.19,988.07C1609.05,984.72 1615.81,981.88 1622.54,978.95C1629.02,976.13 1636.33,975.26 1643.54,970.83C1632.86,966.67 1623.55,962.84 1614.11,959.39C1594.23,952.13 1575.93,942.16 1559.43,928.84C1550.55,921.67 1546.8,921.87 1536.83,929.34C1543.87,935.34 1551.04,941.08 1557.75,947.29C1562.42,951.62 1567.32,953.89 1573.85,953.37C1579.78,952.9 1585.78,953.52 1591.82,958.37C1587.56,959.77 1584.13,960.89 1579.39,962.45C1590.15,968.53 1596.08,977.83 1601.19,988.06L1601.19,988.07ZM1089.57,492.76C1095.3,498.65 1095.12,505.15 1095.4,511.65C1095.53,514.78 1095.64,518.57 1097.35,520.87C1104,529.78 1111.29,538.21 1118.38,546.86C1125.87,538.33 1126.43,533.35 1119.98,525.19C1106.11,507.64 1096.03,488.15 1088.88,467.03C1086.43,459.8 1083.62,452.69 1080.86,445.56C1080.25,443.98 1079.2,442.56 1077.96,440.38C1072.2,454.66 1066.84,467.94 1061.27,481.75C1065.69,484.53 1070.62,486.98 1074.72,490.41C1078.99,493.98 1082.45,498.5 1086.6,502.96C1087.7,499.17 1088.63,495.97 1089.56,492.77L1089.57,492.76ZM1536.48,1119.75C1548.22,1127.27 1550.43,1127.26 1560.29,1119.36C1575.51,1107.16 1592.24,1097.68 1610.52,1090.86C1619.45,1087.53 1628.3,1083.99 1637.16,1080.48C1639.1,1079.71 1640.94,1078.66 1643.32,1077.49C1628.92,1071.95 1615.27,1066.7 1601.25,1061.3C1598.37,1065.93 1595.81,1071.1 1592.25,1075.47C1588.81,1079.7 1584.35,1083.11 1580.12,1087.09C1584.05,1088.79 1588.73,1086.59 1590.73,1091.59C1584.49,1095.44 1577.79,1095.64 1571,1095.93C1567.92,1096.06 1564.24,1096.59 1561.95,1098.37C1553.39,1105.02 1545.29,1112.27 1536.49,1119.74L1536.48,1119.75ZM928.24,544.44C933.68,538.21 938.42,532.26 943.71,526.85C949.64,520.78 953.79,514.46 953.05,505.34C952.63,500.2 953.56,494.75 958.45,489.85C959.77,494.1 960.8,497.42 961.84,500.74C961.54,500.14 961.25,499.54 960.95,498.93C965.23,495.55 969.34,491.93 973.82,488.84C978.42,485.67 983.37,483.03 987.59,480.5C982.27,466.18 977.32,452.85 971.97,438.43C970.49,441.31 969.41,443.11 968.61,445.03C965.38,452.83 962.1,460.61 959.09,468.5C951.75,487.76 941.64,505.36 928.46,521.23C920.88,530.37 920.92,533.03 928.25,544.42L928.24,544.44ZM1078.38,1603.02C1080.78,1596.79 1082.57,1592.53 1084.06,1588.17C1093.01,1561.97 1103.64,1536.69 1121.46,1514.96C1126.61,1508.68 1125.08,1502.42 1118.18,1495.68C1112.29,1502.82 1106.58,1510.11 1100.46,1517.04C1096.62,1521.38 1094.7,1525.86 1095.17,1531.81C1095.65,1537.95 1095.14,1544.19 1090.19,1550.89C1088.75,1546.3 1087.71,1542.99 1086.13,1537.98C1080.16,1549.46 1070.66,1555.23 1061.18,1560.32C1066.91,1574.55 1072.26,1587.83 1078.38,1603.03L1078.38,1603.02ZM514.24,1119.94C507.67,1114.37 501.29,1109.33 495.35,1103.82C489.56,1098.45 483.64,1094.76 475.11,1095.58C469.76,1096.1 464.01,1095.1 458.55,1090.03C463.18,1088.83 466.62,1087.93 471.81,1086.58C460,1080.55 454.48,1070.54 449.35,1061.25C434.88,1066.83 421.4,1072.02 406.56,1077.74C411.85,1079.86 415.84,1081.47 419.83,1083.07C438,1090.36 456.85,1096.17 473.2,1107.43C479.92,1112.06 486.64,1116.7 493.04,1121.75C497.93,1125.6 502.77,1126.2 508.16,1123.37C510.05,1122.37 511.89,1121.27 514.24,1119.95L514.24,1119.94ZM1716.05,1054.11C1723.56,1043.33 1730.07,1033.99 1736.75,1024.4C1730.11,1014.91 1723.47,1005.44 1716.34,995.25C1708.61,1005.32 1700.87,1013.78 1696.15,1025.6C1702.26,1034.35 1708.61,1043.46 1716.05,1054.11ZM313.62,1024.58C321.1,1033.41 325.71,1044.3 334.5,1052.71C342.21,1043.45 349.52,1034.79 353.94,1024.22C348.85,1013.61 342.01,1004.7 333.81,995.5C326.77,1005.65 320.29,1014.98 313.62,1024.59L313.62,1024.58ZM997.16,365.44C999.42,367.48 1000.37,368.44 1001.42,369.27C1005.69,372.63 1009.74,376.35 1014.33,379.2C1027.64,387.47 1023.83,387.72 1037.88,379.3C1043.76,375.77 1049.35,371.59 1054.96,366.09C1044.8,358.82 1035.6,352.25 1026.38,345.65C1016.71,352.2 1007.35,358.54 997.16,365.44ZM997.13,1676.91C1007.62,1683.94 1017.04,1690.26 1026.5,1696.6C1035.89,1689.82 1045.06,1683.21 1054.9,1676.11C1046.2,1668.23 1037.77,1662.04 1028.21,1657.51C1026.82,1656.85 1024.47,1657.11 1023.01,1657.84C1013.75,1662.52 1005.89,1669.13 997.13,1676.9L997.13,1676.91ZM1028.25,1819.97C1033.94,1813.11 1039.18,1806.9 1044.27,1800.57C1045.03,1799.63 1045.69,1797.94 1045.37,1796.91C1043.92,1792.21 1042.11,1787.62 1039.93,1781.64C1036.77,1787.22 1034.5,1791.23 1031.71,1796.16C1031.71,1786.26 1031.41,1777.89 1031.83,1769.55C1032.05,1765.23 1030.59,1762.47 1026.5,1759.31C1020.6,1771.4 1024.99,1783.42 1024.44,1796C1019.8,1792.05 1020.12,1785.67 1014.85,1783.33C1013.4,1787.71 1011.82,1791.51 1010.96,1795.47C1010.57,1797.29 1010.94,1799.92 1012.06,1801.3C1017,1807.42 1022.34,1813.22 1028.25,1819.96L1028.25,1819.97ZM250.31,1025.71C250.37,1024.92 250.43,1024.13 250.49,1023.34C247.88,1022.21 245.28,1020.17 242.65,1020.14C234.78,1020.04 226.89,1020.75 219.01,1021.07C217.69,1021.12 216.36,1020.83 213.6,1020.55C219.16,1017.44 223.3,1015.12 228.81,1012.04C221.82,1009.69 216.55,1007.92 211.79,1006.31C204.27,1012.64 197.44,1018.38 190.32,1024.37C197.05,1030.13 203.18,1035.5 209.48,1040.64C210.56,1041.52 212.58,1042.11 213.86,1041.75C218.44,1040.47 222.89,1038.72 228.63,1036.71C223.18,1033.48 219.08,1031.06 214.99,1028.63C227.26,1027.74 239.15,1031.51 250.3,1025.69L250.31,1025.71ZM1860.2,1024.36C1852.56,1017.98 1845.69,1012.24 1838.55,1006.28C1833.43,1008.05 1828.26,1009.83 1821.71,1012.09C1827.26,1015.32 1831.37,1017.71 1836.04,1020.42C1826.4,1020.42 1818.01,1020.87 1809.69,1020.24C1805.22,1019.9 1802.61,1021.55 1799.29,1024.92C1811.04,1032.36 1823.51,1026.76 1837.02,1028.2C1831.13,1031.43 1827.05,1033.67 1821.67,1036.62C1827.4,1038.68 1831.41,1040.36 1835.57,1041.5C1837.16,1041.93 1839.57,1041.72 1840.78,1040.76C1847.16,1035.68 1853.28,1030.27 1860.2,1024.37L1860.2,1024.36ZM1028.1,222.11C1024.48,226.47 1022.02,230.62 1018.49,233.45C1010.07,240.21 1009.07,247.85 1014.15,256.86C1014.5,257.47 1014.97,258.01 1015.96,259.39C1018.67,254.95 1021.03,251.08 1023.39,247.21C1024.07,256.16 1024.1,264.53 1023.31,272.83C1022.89,277.27 1024.28,279.95 1028.43,282.72C1034.65,271.11 1030.83,259.22 1032.41,247.39C1034.7,251.4 1037,255.4 1040.07,260.77C1042.17,254.98 1043.89,250.73 1045.17,246.35C1045.56,245.02 1045.17,242.95 1044.33,241.87C1039.29,235.47 1034.01,229.26 1028.1,222.13L1028.1,222.11ZM1663.69,1718.22C1663.87,1717.68 1664.06,1717.15 1664.24,1716.61C1645.98,1706.58 1627.72,1696.55 1609.25,1686.41C1611.28,1697.01 1613.29,1707.54 1615.34,1718.21L1663.69,1718.21L1663.69,1718.22ZM441.32,1686.3C422.98,1696.41 404.72,1706.47 386.47,1716.54C386.64,1717.04 386.8,1717.54 386.97,1718.04L435.08,1718.04C437.23,1707.1 439.26,1696.78 441.32,1686.31L441.32,1686.3ZM1609.17,362.48C1627.67,352.29 1645.98,342.2 1664.29,332.11C1664.12,331.65 1663.95,331.19 1663.78,330.73L1615.29,330.73C1613.19,341.59 1611.2,351.9 1609.16,362.47L1609.17,362.48ZM386.87,330.84C386.79,331.37 386.71,331.9 386.64,332.43C404.93,342.48 423.21,352.53 441.37,362.51C439.22,351.72 437.12,341.19 435.05,330.84L386.87,330.84ZM966.8,1710.09C967.07,1709.5 967.34,1708.91 967.61,1708.32C966.22,1707.42 964.72,1706.66 963.47,1705.6C960.97,1703.5 958.7,1701.11 956.15,1699.06C952.27,1695.95 941.24,1696.33 938.82,1700.04C933.94,1707.53 930.76,1715.79 928.77,1725.42C933.75,1725.42 937.81,1725.33 941.88,1725.44C953.18,1725.75 961.447,1720.89 966.68,1710.88C966.8,1710.65 966.77,1710.35 966.81,1710.08L966.8,1710.09ZM1038.77,1637.52C1038.28,1637.61 1037.78,1637.7 1037.29,1637.8C1036.28,1636.39 1034.79,1635.12 1034.34,1633.55C1032.32,1626.49 1030.44,1619.38 1028.84,1612.22C1028.19,1609.31 1028.31,1606.27 1023.59,1605.49C1019.79,1616.28 1020.84,1628.61 1012.79,1640.01C1011.87,1633.93 1011.23,1629.68 1010.33,1623.71C1007.1,1628.48 1004.89,1631.75 1002.26,1635.64C1010.38,1640.68 1017.93,1645.36 1025.8,1650.24C1033.51,1645.07 1041.03,1640.03 1048.88,1634.76C1045.87,1630.71 1043.56,1627.61 1041.25,1624.51C1040.75,1624.74 1040.25,1624.97 1039.75,1625.2C1039.43,1629.31 1039.1,1633.42 1038.78,1637.53L1038.77,1637.52ZM1025.7,392.02C1017.52,397.17 1010.04,401.87 1002.17,406.83C1005,410.82 1007.25,413.99 1010.57,418.66C1011.31,412.44 1011.8,408.33 1012.29,404.22C1012.93,404.09 1013.57,403.96 1014.2,403.84C1015.26,406.09 1016.7,408.24 1017.31,410.6C1018.99,417.17 1020.45,423.8 1021.71,430.47C1022.21,433.11 1021.98,435.89 1026.43,436.98C1027.22,434.56 1028.09,432.21 1028.75,429.8C1030.66,422.73 1032.37,415.61 1034.43,408.59C1034.87,407.1 1036.43,405.94 1038.43,403.43C1039.09,409.13 1039.56,413.21 1040.24,419.13C1043.7,414.37 1046.03,411.16 1048.78,407.37C1040.89,402.13 1033.5,397.22 1025.69,392.04L1025.7,392.02ZM1645.16,1025.53C1647.58,1026.29 1649.91,1027.14 1652.29,1027.76C1659.38,1029.6 1666.52,1031.23 1673.56,1033.2C1675.31,1033.69 1676.77,1035.17 1678.37,1036.19C1678.21,1036.72 1678.04,1037.24 1677.88,1037.77C1673.66,1038.24 1669.44,1038.71 1663.51,1039.38C1668.38,1042.82 1671.62,1045.11 1675.37,1047.76C1680.56,1039.67 1685.36,1032.18 1690.33,1024.42C1685.36,1016.72 1680.45,1009.09 1675.43,1001.31C1671.17,1004.03 1667.41,1005.96 1664.52,1009.46C1669.08,1011.94 1674.08,1009.04 1678.48,1012.48C1676.95,1013.67 1676.06,1014.85 1674.92,1015.16C1667.6,1017.15 1660.28,1019.16 1652.86,1020.72C1649.92,1021.34 1646.85,1021.03 1645.15,1025.54L1645.16,1025.53ZM372.4,1037.88C372.25,1037.18 372.11,1036.48 371.96,1035.79C374.19,1034.69 376.32,1033.19 378.68,1032.55C385.25,1030.77 391.92,1029.39 398.53,1027.76C400.74,1027.22 402.89,1026.41 405.07,1025.72C405.13,1025.05 405.18,1024.38 405.24,1023.71C395.1,1017.95 381.53,1020.72 371.04,1011.45C376.81,1010.84 381.11,1010.38 387.32,1009.72C382.23,1006.19 378.8,1003.81 374.96,1001.15C369.69,1009.47 364.92,1017.01 360.16,1024.53C362.76,1028.56 365.12,1032.22 367.49,1035.88C369.95,1039.69 372.41,1043.5 375.02,1047.55C379.2,1044.8 383.12,1043.19 385.69,1038.92C380.74,1038.54 376.57,1038.22 372.4,1037.9L372.4,1037.88ZM1085.98,334.37C1087.52,336.07 1088.72,337.52 1090.04,338.85C1092.35,341.16 1094.6,343.55 1097.11,345.63C1100.47,348.42 1111.56,348.35 1113.86,345.14C1118.39,338.84 1121.65,331.87 1123.74,323.1C1116.16,323.1 1109.84,323.75 1103.72,322.94C1095.88,321.89 1090.56,324.25 1087.42,331.49C1087.1,332.23 1086.7,332.93 1085.98,334.38L1085.98,334.37ZM968.26,331.96C964.99,328.58 962.51,323.69 959.58,323.4C950.31,322.49 940.87,323.31 930.12,323.48C932.75,329.61 934.52,334.38 936.79,338.89C940.09,345.45 950.54,347.73 956.18,343.12C959.94,340.05 963.34,336.53 968.26,331.95L968.26,331.96ZM1773.49,993.18C1779.51,1003.99 1781.41,1005.14 1786.36,1001.61C1784.95,998.2 1778.8,997.39 1781.06,991.51C1786.01,990.06 1790.48,992.82 1795.09,993.69C1798.92,994.41 1801.88,994.35 1804.11,990.09C1793.14,984.4 1783.58,987.76 1773.49,993.2L1773.49,993.18ZM246.31,1057.9C255.63,1063.8 267.49,1062.41 277.04,1054.29C274.15,1050.88 271.25,1047.47 268.25,1043.93C266.44,1045.16 265.2,1046 263.59,1047.09C265.79,1049.18 267.71,1050.67 269.17,1052.52C269.87,1053.41 270.3,1055.52 269.77,1056.13C268.9,1057.13 267.04,1057.98 265.78,1057.78C262.31,1057.24 258.95,1056.06 255.52,1055.25C252.2,1054.46 249.01,1054.45 246.33,1057.91L246.31,1057.9ZM263.82,1002.07C265.19,1002.9 266.51,1003.7 268.39,1004.83C271.43,1001.16 274.3,997.71 277.19,994.22C266.54,986.21 255.68,985.08 246.55,990.6C250.79,994.47 250.75,994.2 255.54,993.58C260.23,992.97 264.66,989.68 269.66,991.85C271.46,997.15 266.15,998.08 263.82,1002.07ZM1803.7,1057.82C1801.67,1054.36 1798.51,1054.46 1795.26,1055.2C1791.81,1055.98 1788.44,1057.16 1784.97,1057.73C1783.66,1057.94 1781.43,1057.31 1780.93,1056.37C1780.37,1055.33 1780.91,1053.21 1781.7,1052.06C1782.99,1050.19 1784.87,1048.72 1787.06,1046.52C1785.01,1045.7 1783.19,1044.48 1782.76,1044.86C1779.43,1047.76 1776.38,1050.96 1773.18,1054.13C1783.45,1062.67 1795.44,1063.89 1803.71,1057.82L1803.7,1057.82ZM1064.17,1752.51C1063.14,1743.34 1060.72,1737.04 1056.91,1733.6C1047.03,1739.74 1046.38,1740.86 1050.07,1745.8C1053.33,1744.27 1054.34,1738.25 1060.41,1740.73C1060.04,1744.62 1059.67,1748.49 1059.27,1752.73C1061.09,1752.65 1062.35,1752.59 1064.16,1752.51L1064.17,1752.51ZM997.41,1733.58C991.3,1738.57 990.89,1744.66 990.7,1750.58C990.62,1753.2 992.74,1753.27 995.09,1751.64C994.72,1749.68 994.09,1747.61 994,1745.52C993.94,1744.07 994.64,1742.59 995,1741.12C996.68,1741.54 998.57,1741.62 999.98,1742.48C1001.7,1743.52 1003.01,1745.22 1005,1747.11C1005.84,1745.18 1007.12,1743.3 1006.76,1742.91C1003.79,1739.63 1000.52,1736.62 997.4,1733.58L997.41,1733.58ZM1049.16,296.08C1048.38,297.95 1047.14,299.79 1047.51,300.2C1050.46,303.5 1053.72,306.54 1057.19,309.96C1060.47,305.38 1063.75,302.14 1062.38,295.78C1060.84,298.83 1059.87,300.76 1058.4,303.68C1055.25,301.09 1052.68,298.98 1049.17,296.09L1049.16,296.08ZM996.36,309.26C1000.27,306 1003.18,303.96 1005.62,301.45C1008.13,298.87 1006.78,297.23 1004,296.41C1001.55,298.27 999.6,300.68 997.23,301.22C995.71,301.56 993.57,299.14 990.17,296.98C992.53,301.65 994.16,304.89 996.37,309.27L996.36,309.26ZM992.76,277.24C991.55,281.41 990.57,284.77 989.58,288.14C990.08,288.61 990.59,289.08 991.09,289.55C992.78,288.86 995.32,288.64 996.01,287.4C997.8,284.14 997.81,280.65 992.76,277.23L992.76,277.24ZM1063.65,289.92C1064.14,289.42 1064.63,288.92 1065.12,288.42C1063.98,285.25 1062.84,282.08 1061.43,278.15C1057.59,283.57 1056.78,285.89 1058.56,287.78C1059.71,289.01 1061.92,289.24 1063.65,289.92ZM1023.27,338.86L1029.81,338.86C1027.21,334.7 1025.23,335.7 1023.27,338.86ZM1742.85,1019.93C1743.31,1023.18 1743.57,1025 1743.88,1027.13C1748.26,1024.41 1745.75,1022.86 1742.85,1019.93ZM997.16,1759.46C994.27,1759.83 993.04,1759.98 991.08,1760.23C992.25,1761.95 993.03,1763.09 994.26,1764.88C995.28,1762.97 995.88,1761.86 997.16,1759.46ZM305.67,1021.35C302.99,1025.85 305.37,1026.68 307.97,1028.79C307.09,1025.95 306.57,1024.27 305.67,1021.35Z" style="fill-rule:nonzero;"/>
    <g id="Capa2">
        <path d="M698.993,950.205C698.073,951.023 696.662,950.94 695.844,950.02C695.026,949.1 695.109,947.689 696.029,946.871C737.073,910.387 730.709,912.913 771.965,876.417C870.458,789.289 938.771,761.915 939.434,761.749C940.629,761.45 941.841,762.178 942.139,763.372C942.438,764.566 941.711,765.778 940.516,766.077C939.86,766.241 872.393,793.534 774.921,879.759C733.669,916.251 740.032,913.726 698.993,950.205Z" style="fill:rgb(242,226,199);"/>
    </g>
    <g id="Capa5">
    </g>
    <g id="Capa4">
        <g transform="matrix(0.93697,0,0,0.900654,75.5205,74.0734)">
            <path d="M1094.82,736.599C1093.99,737.15 1092.88,737.125 1092.07,736.455C1091.04,735.608 1090.86,734.05 1091.67,732.977L1092.13,732.501L1092.77,732.083C1093.1,731.92 1093.55,731.77 1094.12,731.679C1095.38,731.48 1097.63,731.545 1100.66,731.913C1116.43,733.833 1155.24,743.66 1178.36,755.218C1340.12,836.099 1377.35,936.792 1398.17,978.45C1398.78,979.663 1398.33,981.16 1397.16,981.791C1396,982.421 1394.56,981.949 1393.95,980.736C1373.33,939.486 1336.47,839.771 1176.3,759.683C1153.63,748.349 1115.57,738.715 1100.11,736.833C1097.76,736.548 1095.37,736.586 1094.82,736.599Z" style="fill:rgb(242,226,199);"/>
        </g>
        <path d="M578.058,1230.63C577.354,1230.86 576.596,1230.48 576.365,1229.77C576.135,1229.07 576.519,1228.31 577.223,1228.08C577.852,1227.87 578.579,1227.83 579.712,1227.75C583.597,1227.51 593.004,1226.58 624.581,1212.54C649.856,1201.31 648.982,1199.43 675.385,1191.4C680.263,1189.91 708.902,1181.2 738.087,1179.98C738.827,1179.95 739.453,1180.53 739.483,1181.27C739.514,1182.01 738.938,1182.63 738.198,1182.66C709.325,1183.87 680.993,1192.5 676.167,1193.96C649.922,1201.95 650.795,1203.83 625.671,1215C593.465,1229.31 583.844,1230.18 579.882,1230.43C579.054,1230.49 578.518,1230.48 578.058,1230.63Z" style="fill:rgb(242,226,199);"/>
        <path d="M736.235,1183.03C735.495,1182.99 734.93,1182.36 734.972,1181.62C735.015,1180.88 735.65,1180.31 736.39,1180.36C776.56,1182.68 802.725,1197.65 827.252,1217.67C851.543,1237.5 874.213,1262.31 907.531,1284.52C908.879,1285.42 910.934,1286.27 912.672,1287.13C914.02,1287.8 915.192,1288.48 915.866,1289.16C916.39,1289.68 916.39,1290.53 915.866,1291.06C915.342,1291.58 914.492,1291.58 913.968,1291.06C913.449,1290.54 912.521,1290.05 911.483,1289.54C909.641,1288.63 907.471,1287.7 906.042,1286.75C872.641,1264.48 849.906,1239.63 825.555,1219.75C801.44,1200.07 775.728,1185.32 736.235,1183.03Z" style="fill:rgb(242,226,199);"/>
        <path d="M914.192,1289.41L939.611,1301.53" style="fill:none;stroke:rgb(242,226,199);stroke-width:2.36px;"/>
        <path d="M1095.94,1316.65L1121.22,1315.07" style="fill:none;stroke:rgb(242,226,199);stroke-width:2.36px;"/>
        <path d="M1121.22,1315.07L1141.71,1310.42" style="fill:none;stroke:rgb(242,226,199);stroke-width:2.36px;"/>
        <path d="M1141.71,1310.42L1157.09,1302.6" style="fill:none;stroke:rgb(242,226,199);stroke-width:2.36px;"/>
        <path d="M1157.09,1302.6L1182.24,1291.05" style="fill:none;stroke:rgb(242,226,199);stroke-width:2.36px;"/>
        <path d="M1182.24,1291.05L1202.47,1281.54" style="fill:none;stroke:rgb(242,226,199);stroke-width:2.36px;"/>
        <path d="M1202.47,1281.54L1214.2,1274.96" style="fill:none;stroke:rgb(242,226,199);stroke-width:2.36px;"/>
        <path d="M1214.2,1274.96L1224.96,1265.98" style="fill:none;stroke:rgb(242,226,199);stroke-width:2.36px;"/>
        <path d="M1224.96,1265.98L1242.56,1249.8" style="fill:none;stroke:rgb(242,226,199);stroke-width:2.36px;"/>
        <path d="M1242.56,1249.8L1244.94,1248.42" style="fill:none;stroke:rgb(242,226,199);stroke-width:2.36px;"/>
        <path d="M1244.94,1248.42L1250.57,1245.88" style="fill:none;stroke:rgb(242,226,199);stroke-width:2.36px;"/>
        <path d="M1250.57,1245.88L1254.91,1245.34" style="fill:none;stroke:rgb(242,226,199);stroke-width:2.36px;"/>
        <path d="M1254.91,1245.34L1271.6,1245" style="fill:none;stroke:rgb(242,226,199);stroke-width:2.36px;"/>
        <path d="M1271.6,1245L1304.1,1245.32" style="fill:none;stroke:rgb(242,226,199);stroke-width:2.36px;"/>
        <path d="M1319.96,1245.07L1304.62,1245.21" style="fill:none;stroke:rgb(242,226,199);stroke-width:2.36px;"/>
        <path d="M1319.96,1245.07L1336.43,1242.1" style="fill:none;stroke:rgb(242,226,199);stroke-width:2.36px;"/>
        <path d="M1336.43,1242.1L1352.87,1236.95" style="fill:none;stroke:rgb(242,226,199);stroke-width:2.36px;"/>
        <path d="M1352.87,1236.95L1366.13,1232.91" style="fill:none;stroke:rgb(242,226,199);stroke-width:2.36px;"/>
        <path d="M1366.13,1232.91L1388.04,1225.58" style="fill:none;stroke:rgb(242,226,199);stroke-width:2.36px;"/>
        <path d="M1388.04,1225.58L1413.19,1215.92" style="fill:none;stroke:rgb(242,226,199);stroke-width:2.36px;"/>
        <path d="M1413.19,1215.92L1424.19,1210.5" style="fill:none;stroke:rgb(242,226,199);stroke-width:2.36px;"/>
        <path d="M1424.19,1210.5L1433.27,1204.92" style="fill:none;stroke:rgb(242,226,199);stroke-width:2.36px;"/>
        <path d="M1416.77,1110.95L1423.61,1116.92" style="fill:none;stroke:rgb(242,226,199);stroke-width:2.36px;"/>
        <path d="M1423.61,1116.92L1433.33,1121.73" style="fill:none;stroke:rgb(242,226,199);stroke-width:2.36px;"/>
        <path d="M1433.33,1121.73L1445.41,1125.93" style="fill:none;stroke:rgb(242,226,199);stroke-width:2.36px;"/>
        <path d="M1445.41,1125.93L1459.33,1132.99" style="fill:none;stroke:rgb(242,226,199);stroke-width:2.36px;"/>
        <path d="M1459.33,1132.99L1468.03,1138.93" style="fill:none;stroke:rgb(242,226,199);stroke-width:2.36px;"/>
        <path d="M1468.03,1138.93L1472.84,1145.58" style="fill:none;stroke:rgb(242,226,199);stroke-width:2.36px;"/>
        <path d="M1472.84,1145.58L1474.79,1154.59" style="fill:none;stroke:rgb(242,226,199);stroke-width:2.36px;"/>
        <path d="M1474.79,1154.59L1474.07,1162.06" style="fill:none;stroke:rgb(242,226,199);stroke-width:2.36px;"/>
        <path d="M1474.07,1162.06L1472.23,1169.12" style="fill:none;stroke:rgb(242,226,199);stroke-width:2.36px;"/>
        <path d="M1472.23,1169.12L1470.08,1174.04" style="fill:none;stroke:rgb(242,226,199);stroke-width:2.36px;"/>
        <path d="M1470.08,1174.04L1463.32,1183.15" style="fill:none;stroke:rgb(242,226,199);stroke-width:2.36px;"/>
        <path d="M1463.32,1183.15L1453.46,1191.32" style="fill:none;stroke:rgb(242,226,199);stroke-width:2.36px;"/>
        <path d="M1453.46,1191.32L1441.42,1199.78" style="fill:none;stroke:rgb(242,226,199);stroke-width:2.36px;"/>
        <path d="M1441.42,1199.78L1432.55,1205.35" style="fill:none;stroke:rgb(242,226,199);stroke-width:2.36px;"/>
        <path d="M1415.75,1109.99L1410.16,1102.14" style="fill:none;stroke:rgb(242,226,199);stroke-width:2.36px;"/>
        <path d="M1415.75,1109.99L1418.8,1112.96" style="fill:none;stroke:rgb(242,226,199);stroke-width:2.36px;"/>
        <path d="M1410.5,1102.64L1406.75,1095.76" style="fill:none;stroke:rgb(242,226,199);stroke-width:2.36px;"/>
        <path d="M1406.75,1095.76L1403.77,1088.57" style="fill:none;stroke:rgb(242,226,199);stroke-width:2.36px;"/>
        <path d="M1403.77,1088.57L1403.41,1084.43" style="fill:none;stroke:rgb(242,226,199);stroke-width:2.36px;"/>
        <path d="M578.474,1229.13L573.631,1227.38" style="fill:none;stroke:rgb(242,226,199);stroke-width:2.36px;"/>
        <path d="M573.631,1227.38L568.1,1223.75" style="fill:none;stroke:rgb(242,226,199);stroke-width:2.36px;"/>
        <path d="M568.1,1223.75L562.568,1219.6" style="fill:none;stroke:rgb(242,226,199);stroke-width:2.36px;"/>
        <path d="M562.568,1219.6L558.074,1214.59" style="fill:none;stroke:rgb(242,226,199);stroke-width:2.36px;"/>
        <path d="M558.074,1214.59L552.801,1207.41" style="fill:none;stroke:rgb(242,226,199);stroke-width:2.36px;"/>
        <path d="M552.801,1207.41L551.505,1196.95" style="fill:none;stroke:rgb(242,226,199);stroke-width:2.36px;"/>
        <path d="M551.505,1196.95L556.431,1180.53" style="fill:none;stroke:rgb(242,226,199);stroke-width:2.36px;"/>
        <path d="M556.431,1180.53L561.465,1166.59" style="fill:none;stroke:rgb(242,226,199);stroke-width:2.36px;"/>
        <path d="M561.465,1166.59L572.133,1138.18" style="fill:none;stroke:rgb(242,226,199);stroke-width:2.36px;"/>
        <path d="M572.133,1138.18L585.932,1107.11" style="fill:none;stroke:rgb(242,226,199);stroke-width:2.36px;"/>
        <path d="M585.932,1107.11L602.398,1076.96" style="fill:none;stroke:rgb(242,226,199);stroke-width:2.36px;"/>
        <path d="M602.398,1076.96L623.618,1048.55" style="fill:none;stroke:rgb(242,226,199);stroke-width:2.36px;"/>
        <path d="M623.618,1048.55L650.935,1005.58" style="fill:none;stroke:rgb(242,226,199);stroke-width:2.36px;"/>
        <path d="M650.935,1005.58L668.635,981.856" style="fill:none;stroke:rgb(242,226,199);stroke-width:2.36px;"/>
        <path d="M668.635,981.856L685.959,960.578" style="fill:none;stroke:rgb(242,226,199);stroke-width:2.36px;"/>
        <path d="M685.959,960.578L698.362,947.879" style="fill:none;stroke:rgb(242,226,199);stroke-width:4.3px;"/>
        <path d="M685.959,960.578L671.377,977.883" style="fill:none;stroke:rgb(242,226,199);stroke-width:3.7px;"/>
        <path d="M671.377,977.883L660.232,992.305" style="fill:none;stroke:rgb(242,226,199);stroke-width:2.68px;"/>
        <path d="M660.232,992.305L651.055,1005.91" style="fill:none;stroke:rgb(242,226,199);stroke-width:2.68px;"/>
    </g>
</svg>
