<?xml version="1.0" encoding="UTF-8" standalone="no"?>
<!DOCTYPE svg PUBLIC "-//W3C//DTD SVG 1.1//EN" "http://www.w3.org/Graphics/SVG/1.1/DTD/svg11.dtd">
<svg width="100%" height="100%" viewBox="0 0 48 48" version="1.1" xmlns="http://www.w3.org/2000/svg" xmlns:xlink="http://www.w3.org/1999/xlink" xml:space="preserve" xmlns:serif="http://www.serif.com/" style="fill-rule:evenodd;clip-rule:evenodd;stroke-linejoin:round;stroke-miterlimit:2;">
    <g transform="matrix(1,0,0,1,-972,-39)">
        <g id="panel_border_024" transform="matrix(1,0,0,1,995.997,63)">
            <g>
                <g>
                    <g id="Symbol_118_0_Layer0_0_FILL">
                        <path d="M20,-20L20,-24L10,-24L10,-16L-10,-16L-10,-24L-20,-24L-20,-20L-24,-20L-24,-10L-16,-10L-16,10L-24,10L-24,20L-20,20L-20,24L-10,24L-10,16L10,16L10,24L20,24L20,20L24,20L24,10L16,10L16,-10L24,-10L24,-20L20,-20M18,-22L18,-20L14,-20L14,-16L12,-16L12,-22L18,-22M12,-14L14,-14L14,-12L12,-12L12,-14M16,-14L20,-14L20,-18L22,-18L22,-12L16,-12L16,-14M16,-16L16,-18L18,-18L18,-16L16,-16M12,-10L14,-10L14,10L12,10L12,-10M10,-14L10,-12L-10,-12L-10,-14L10,-14M22,12L22,18L20,18L20,14L16,14L16,12L22,12M12,12L14,12L14,14L12,14L12,12M16,18L16,16L18,16L18,18L16,18M12,16L14,16L14,20L18,20L18,22L12,22L12,16M10,12L10,14L-10,14L-10,12L10,12M10,-10L10,10L-10,10L-10,-10L10,-10M-22,-12L-22,-18L-20,-18L-20,-14L-16,-14L-16,-12L-22,-12M-18,-20L-18,-22L-12,-22L-12,-16L-14,-16L-14,-20L-18,-20M-18,-16L-18,-18L-16,-18L-16,-16L-18,-16M-14,-14L-12,-14L-12,-12L-14,-12L-14,-14M-14,-10L-12,-10L-12,10L-14,10L-14,-10M-14,12L-12,12L-12,14L-14,14L-14,12M-14,16L-12,16L-12,22L-18,22L-18,20L-14,20L-14,16M-20,14L-20,18L-22,18L-22,12L-16,12L-16,14L-20,14M-18,18L-18,16L-16,16L-16,18L-18,18Z" style="fill:white;fill-rule:nonzero;"/>
                    </g>
                </g>
            </g>
        </g>
        <g transform="matrix(1,0,0,1,972,39)">
            <rect x="14.022" y="14.211" width="19.815" height="19.511" style="fill:rgb(255,8,8);fill-opacity:0.24;"/>
        </g>
    </g>
</svg>
