<?xml version="1.0" encoding="UTF-8" standalone="no"?>
<!DOCTYPE svg PUBLIC "-//W3C//DTD SVG 1.1//EN" "http://www.w3.org/Graphics/SVG/1.1/DTD/svg11.dtd">
<svg width="100%" height="100%" viewBox="0 0 48 48" version="1.1" xmlns="http://www.w3.org/2000/svg" xmlns:xlink="http://www.w3.org/1999/xlink" xml:space="preserve" xmlns:serif="http://www.serif.com/" style="fill-rule:evenodd;clip-rule:evenodd;stroke-linejoin:round;stroke-miterlimit:2;">
    <g transform="matrix(1,0,0,1,-972,-225)">
        <g transform="matrix(1,0,0,1,-14.2228,-1.85463)">
            <g id="panel_border_000" transform="matrix(1,0,0,1,1010.22,250.855)">
                <g>
                    <g id="Symbol_142_0_Layer0_0_FILL">
                        <path d="M-20,20L-20,24L-18,24L-18,18L-24,18L-24,20L-20,20M-24,-20L-24,-18L-18,-18L-18,-24L-20,-24L-20,-20L-24,-20M24,20L24,18L18,18L18,24L20,24L20,20L24,20M14,-22L14,-20L-14,-20L-14,-22L-16,-22L-16,-16L-22,-16L-22,-14L-20,-14L-20,14L-22,14L-22,16L-16,16L-16,22L-14,22L-14,20L14,20L14,22L16,22L16,16L22,16L22,14L20,14L20,-14L22,-14L22,-16L16,-16L16,-22L14,-22M14,-14L18,-14L18,14L14,14L14,18L-14,18L-14,14L-18,14L-18,-14L-14,-14L-14,-18L14,-18L14,-14M20,-20L20,-24L18,-24L18,-18L24,-18L24,-20L20,-20Z" style="fill:white;fill-rule:nonzero;"/>
                    </g>
                </g>
            </g>
        </g>
    </g>
</svg>
