<?xml version="1.0" encoding="UTF-8" standalone="no"?>
<!DOCTYPE svg PUBLIC "-//W3C//DTD SVG 1.1//EN" "http://www.w3.org/Graphics/SVG/1.1/DTD/svg11.dtd">
<svg width="100%" height="100%" viewBox="0 0 48 48" version="1.1" xmlns="http://www.w3.org/2000/svg" xmlns:xlink="http://www.w3.org/1999/xlink" xml:space="preserve" xmlns:serif="http://www.serif.com/" style="fill-rule:evenodd;clip-rule:evenodd;stroke-linejoin:round;stroke-miterlimit:2;">
    <g transform="matrix(1,0,0,1,-846,-163)">
        <g transform="matrix(1,0,0,1,-14.2228,-1.85463)">
            <g id="panel_border_010" transform="matrix(1,0,0,1,884.223,188.855)">
                <g>
                    <g id="Symbol_132_0_Layer0_0_FILL">
                        <path d="M16,-20L16,-24L-16,-24L-16,-20L-18,-20L-18,-24L-24,-24L-24,-18L-20,-18L-20,-16L-24,-16L-24,16L-20,16L-20,18L-24,18L-24,24L-18,24L-18,20L-16,20L-16,24L16,24L16,20L18,20L18,24L24,24L24,18L20,18L20,16L24,16L24,-16L20,-16L20,-18L24,-18L24,-24L18,-24L18,-20L16,-20M20,-20L20,-22L22,-22L22,-20L20,-20M16,-16L16,-18L18,-18L18,-16L16,-16M14,-22L14,-14L22,-14L22,14L14,14L14,22L-14,22L-14,14L-22,14L-22,-14L-14,-14L-14,-22L14,-22M22,20L22,22L20,22L20,20L22,20M16,18L16,16L18,16L18,18L16,18M-22,-20L-22,-22L-20,-22L-20,-20L-22,-20M-18,-18L-16,-18L-16,-16L-18,-16L-18,-18M-18,18L-18,16L-16,16L-16,18L-18,18M-20,20L-20,22L-22,22L-22,20L-20,20Z" style="fill:white;fill-rule:nonzero;"/>
                    </g>
                </g>
            </g>
        </g>
    </g>
</svg>
