<?xml version="1.0" encoding="UTF-8" standalone="no"?>
<!DOCTYPE svg PUBLIC "-//W3C//DTD SVG 1.1//EN" "http://www.w3.org/Graphics/SVG/1.1/DTD/svg11.dtd">
<svg width="100%" height="100%" viewBox="0 0 48 48" version="1.1" xmlns="http://www.w3.org/2000/svg" xmlns:xlink="http://www.w3.org/1999/xlink" xml:space="preserve" xmlns:serif="http://www.serif.com/" style="fill-rule:evenodd;clip-rule:evenodd;stroke-linejoin:round;stroke-miterlimit:2;">
    <g transform="matrix(1,0,0,1,-784,-225)">
        <g transform="matrix(1,0,0,1,-14.2228,-1.85463)">
            <g id="panel_border_003" transform="matrix(1,0,0,1,822.223,250.855)">
                <g>
                    <g id="Symbol_139_0_Layer0_0_FILL">
                        <path d="M14,-24L14,-20L-14,-20L-14,-24L-24,-24L-24,-14L-20,-14L-20,14L-24,14L-24,24L-14,24L-14,20L14,20L14,24L24,24L24,14L20,14L20,-14L24,-14L24,-24L14,-24M20,-20L16,-20L16,-22L22,-22L22,-16L20,-16L20,-20M14,-18L14,-16L-14,-16L-14,-18L14,-18M16,-16L16,-18L18,-18L18,-16L16,-16M16,-14L18,-14L18,14L16,14L16,-14M22,16L22,22L16,22L16,20L20,20L20,16L22,16M16,18L16,16L18,16L18,18L16,18M14,16L14,18L-14,18L-14,16L14,16M14,-14L14,14L-14,14L-14,-14L14,-14M-22,-16L-22,-22L-16,-22L-16,-20L-20,-20L-20,-16L-22,-16M-18,-18L-16,-18L-16,-16L-18,-16L-18,-18M-18,-14L-16,-14L-16,14L-18,14L-18,-14M-18,18L-18,16L-16,16L-16,18L-18,18M-16,20L-16,22L-22,22L-22,16L-20,16L-20,20L-16,20Z" style="fill:white;fill-rule:nonzero;"/>
                    </g>
                </g>
            </g>
        </g>
    </g>
</svg>
