<?xml version="1.0" encoding="UTF-8" standalone="no"?>
<!DOCTYPE svg PUBLIC "-//W3C//DTD SVG 1.1//EN" "http://www.w3.org/Graphics/SVG/1.1/DTD/svg11.dtd">
<svg width="100%" height="100%" viewBox="0 0 48 48" version="1.1" xmlns="http://www.w3.org/2000/svg" xmlns:xlink="http://www.w3.org/1999/xlink" xml:space="preserve" xmlns:serif="http://www.serif.com/" style="fill-rule:evenodd;clip-rule:evenodd;stroke-linejoin:round;stroke-miterlimit:2;">
    <g transform="matrix(1,0,0,1,-598,-163)">
        <g transform="matrix(1,0,0,1,-14.2228,-1.85463)">
            <g id="panel_border_014" transform="matrix(1,0,0,1,636.223,188.855)">
                <g>
                    <g id="Symbol_128_0_Layer0_0_FILL">
                        <path d="M20,-20L20,-24L-20,-24L-20,-20L-24,-20L-24,20L-20,20L-20,24L20,24L20,20L24,20L24,-20L20,-20M18,-22L18,-18L22,-18L22,18L18,18L18,22L-18,22L-18,18L-22,18L-22,-18L-18,-18L-18,-22L18,-22M16,-16L16,-20L-16,-20L-16,-16L-20,-16L-20,16L-16,16L-16,20L16,20L16,16L20,16L20,-16L16,-16M14,-18L14,-14L18,-14L18,14L14,14L14,18L-14,18L-14,14L-18,14L-18,-14L-14,-14L-14,-18L14,-18Z" style="fill:white;fill-rule:nonzero;"/>
                    </g>
                </g>
            </g>
        </g>
    </g>
</svg>
