<?xml version="1.0" encoding="UTF-8" standalone="no"?>
<!DOCTYPE svg PUBLIC "-//W3C//DTD SVG 1.1//EN" "http://www.w3.org/Graphics/SVG/1.1/DTD/svg11.dtd">
<svg width="100%" height="100%" viewBox="0 0 201 201" version="1.1" xmlns="http://www.w3.org/2000/svg" xmlns:xlink="http://www.w3.org/1999/xlink" xml:space="preserve" xmlns:serif="http://www.serif.com/" style="fill-rule:evenodd;clip-rule:evenodd;stroke-linejoin:round;stroke-miterlimit:2;">
    <g id="Artboard1" transform="matrix(0.0570576,0,0,0.0806996,0,0)">
        <rect x="0" y="0" width="3507.87" height="2480.32" style="fill-opacity:0;"/>
        <clipPath id="_clip1">
            <rect x="0" y="0" width="3507.87" height="2480.32"/>
        </clipPath>
        <g clip-path="url(#_clip1)">
            <g transform="matrix(17.5262,0,0,12.3916,0,0)">
                <path d="M183.186,16.432L199.853,16.432L199.853,58.098L166.519,58.098L166.519,141.432L199.853,141.432L199.853,183.098L183.186,183.098L183.186,199.765L141.519,199.765L141.519,166.432L58.186,166.432L58.186,199.765L16.519,199.765L16.519,183.098L-0.147,183.098L-0.147,141.432L33.186,141.432L33.186,58.098L-0.147,58.098L-0.147,16.432L16.519,16.432L16.519,-0.235L58.186,-0.235L58.186,33.098L141.519,33.098L141.519,-0.235L183.186,-0.235L183.186,16.432ZM166.519,33.098L174.853,33.098L174.853,24.765L166.519,24.765L166.519,33.098ZM149.853,58.098L149.853,141.432L158.186,141.432L158.186,58.098L149.853,58.098ZM141.519,41.432L58.186,41.432L58.186,49.765L141.519,49.765L141.519,41.432ZM149.853,166.432L149.853,191.432L174.853,191.432L174.853,183.098L158.186,183.098L158.186,166.432L149.853,166.432ZM141.519,58.098L58.186,58.098L58.186,141.432L141.519,141.432L141.519,58.098ZM41.519,149.765L41.519,158.098L49.853,158.098L49.853,149.765L41.519,149.765ZM41.519,166.432L41.519,183.098L24.853,183.098L24.853,191.432L49.853,191.432L49.853,166.432L41.519,166.432ZM174.853,8.098L149.853,8.098L149.853,33.098L158.186,33.098L158.186,16.432L174.853,16.432L174.853,8.098ZM8.186,49.765L33.186,49.765L33.186,41.432L16.519,41.432L16.519,24.765L8.186,24.765L8.186,49.765ZM24.853,33.098L33.186,33.098L33.186,24.765L24.853,24.765L24.853,33.098ZM41.519,41.432L41.519,49.765L49.853,49.765L49.853,41.432L41.519,41.432ZM16.519,158.098L33.186,158.098L33.186,149.765L8.186,149.765L8.186,174.765L16.519,174.765L16.519,158.098ZM24.853,16.432L41.519,16.432L41.519,33.098L49.853,33.098L49.853,8.098L24.853,8.098L24.853,16.432ZM166.519,174.765L174.853,174.765L174.853,166.432L166.519,166.432L166.519,174.765ZM141.519,149.765L58.186,149.765L58.186,158.098L141.519,158.098L141.519,149.765ZM149.853,149.765L149.853,158.098L158.186,158.098L158.186,149.765L149.853,149.765ZM191.519,149.765L166.519,149.765L166.519,158.098L183.186,158.098L183.186,174.765L191.519,174.765L191.519,149.765ZM41.519,58.098L41.519,141.432L49.853,141.432L49.853,58.098L41.519,58.098ZM149.853,41.432L149.853,49.765L158.186,49.765L158.186,41.432L149.853,41.432ZM166.519,41.432L166.519,49.765L191.519,49.765L191.519,24.765L183.186,24.765L183.186,41.432L166.519,41.432ZM24.853,174.765L33.186,174.765L33.186,166.432L24.853,166.432L24.853,174.765Z" style="fill:white;"/>
            </g>
            <g transform="matrix(73.0257,0,0,51.6318,1750.03,1236.25)">
                <path d="M20,-20L20,-24L10,-24L10,-16L-10,-16L-10,-24L-20,-24L-20,-20L-24,-20L-24,-10L-16,-10L-16,10L-24,10L-24,20L-20,20L-20,24L-10,24L-10,16L10,16L10,24L20,24L20,20L24,20L24,10L16,10L16,-10L24,-10L24,-20L20,-20M18,-22L18,-20L14,-20L14,-16L12,-16L12,-22L18,-22M12,-14L14,-14L14,-12L12,-12L12,-14M16,-14L20,-14L20,-18L22,-18L22,-12L16,-12L16,-14M16,-16L16,-18L18,-18L18,-16L16,-16M12,-10L14,-10L14,10L12,10L12,-10M10,-14L10,-12L-10,-12L-10,-14L10,-14M22,12L22,18L20,18L20,14L16,14L16,12L22,12M12,12L14,12L14,14L12,14L12,12M16,18L16,16L18,16L18,18L16,18M12,16L14,16L14,20L18,20L18,22L12,22L12,16M10,12L10,14L-10,14L-10,12L10,12M10,-10L10,10L-10,10L-10,-10L10,-10M-22,-12L-22,-18L-20,-18L-20,-14L-16,-14L-16,-12L-22,-12M-18,-20L-18,-22L-12,-22L-12,-16L-14,-16L-14,-20L-18,-20M-18,-16L-18,-18L-16,-18L-16,-16L-18,-16M-14,-14L-12,-14L-12,-12L-14,-12L-14,-14M-14,-10L-12,-10L-12,10L-14,10L-14,-10M-14,12L-12,12L-12,14L-14,14L-14,12M-14,16L-12,16L-12,22L-18,22L-18,20L-14,20L-14,16M-20,14L-20,18L-22,18L-22,12L-16,12L-16,14L-20,14M-18,18L-18,16L-16,16L-16,18L-18,18Z" style="fill:none;fill-rule:nonzero;"/>
            </g>
        </g>
    </g>
</svg>
