<?xml version="1.0" encoding="UTF-8" standalone="no"?>
<!DOCTYPE svg PUBLIC "-//W3C//DTD SVG 1.1//EN" "http://www.w3.org/Graphics/SVG/1.1/DTD/svg11.dtd">
<svg width="100%" height="100%" viewBox="0 0 48 48" version="1.1" xmlns="http://www.w3.org/2000/svg" xmlns:xlink="http://www.w3.org/1999/xlink" xml:space="preserve" xmlns:serif="http://www.serif.com/" style="fill-rule:evenodd;clip-rule:evenodd;stroke-linejoin:round;stroke-miterlimit:2;">
    <path d="M40,2L40,4L36,4L36,12L44,12L44,8L46,8L46,40L44,40L44,36L36,36L36,44L40,44L40,46L8,46L8,44L12,44L12,36L4,36L4,40L2,40L2,8L4,8L4,12L12,12L12,4L8,4L8,2L40,2Z" style="fill-opacity:0.4;"/>
    <g id="panel_border_002" transform="matrix(1,0,0,1,24.0002,24.0004)">
        <g>
            <g id="panel_border_0021" serif:id="panel_border_002">
                <g>
                    <g id="Symbol_140_0_Layer0_0_FILL">
                        <path d="M18,-22L18,-24L-18,-24L-18,-22L-22,-22L-22,-18L-24,-18L-24,18L-22,18L-22,22L-18,22L-18,24L18,24L18,22L22,22L22,18L24,18L24,-18L22,-18L22,-22L18,-22M18,-20L20,-20L20,-18L18,-18L18,-20M16,-22L16,-20L12,-20L12,-12L20,-12L20,-16L22,-16L22,16L20,16L20,12L12,12L12,20L16,20L16,22L-16,22L-16,20L-12,20L-12,12L-20,12L-20,16L-22,16L-22,-16L-20,-16L-20,-12L-12,-12L-12,-20L-16,-20L-16,-22L16,-22M14,-14L14,-18L16,-18L16,-16L18,-16L18,-14L14,-14M18,18L20,18L20,20L18,20L18,18M18,16L16,16L16,18L14,18L14,14L18,14L18,16M-20,-20L-18,-20L-18,-18L-20,-18L-20,-20M-18,-14L-18,-16L-16,-16L-16,-18L-14,-18L-14,-14L-18,-14M-14,14L-14,18L-16,18L-16,16L-18,16L-18,14L-14,14M-20,18L-18,18L-18,20L-20,20L-20,18Z" style="fill:white;fill-rule:nonzero;"/>
                    </g>
                </g>
            </g>
        </g>
    </g>
</svg>
